<svg xmlns="http://www.w3.org/2000/svg" xmlns:xlink="http://www.w3.org/1999/xlink" xmlns:lucid="lucid" width="1580.48" height="1011.49"><g transform="translate(7.105427357601002e-15 -50.577611978398636)" lucid:page-tab-id="0_0"><path d="M1040.48 147.7c0-4.4 3.58-8 8-8h504c4.42 0 8 3.6 8 8v844c0 4.43-3.58 8-8 8h-504c-4.42 0-8-3.57-8-8z" stroke="#333" fill="#ffeca9"/><use xlink:href="#a" transform="matrix(1,0,0,1,1045.4786929805996,144.70817001809567) translate(217.76635802469139 21.511111111111106)"/><path d="M20 147.7c0-4.4 3.58-8 8-8h64c4.42 0 8 3.6 8 8V532c0 4.42-3.58 8-8 8H28c-4.42 0-8-3.58-8-8z" fill="none"/><path d="M100 540c-5.52 0-10-4.48-10-10V349.85c0-5.52-4.48-10-10-10 5.52 0 10-4.47 10-10V149.7c0-5.5 4.48-10 10-10" stroke="#333" fill="none"/><path d="M20 548c0-4.42 3.58-8 8-8h64c4.42 0 8 3.58 8 8v124c0 4.42-3.58 8-8 8H28c-4.42 0-8-3.58-8-8z" fill="none"/><path d="M100 680c-5.52 0-10-4.48-10-10v-50c0-5.52-4.48-10-10-10 5.52 0 10-4.48 10-10v-50c0-5.52 4.48-10 10-10" stroke="#333" fill="none"/><path d="M20 688c0-4.42 3.58-8 8-8h64c4.42 0 8 3.58 8 8v346.06c0 4.42-3.58 8-8 8H28c-4.42 0-8-3.58-8-8z" fill="none"/><path d="M100 1042.06c-5.52 0-10-4.47-10-10V871.03c0-5.52-4.48-10-10-10 5.52 0 10-4.48 10-10V690c0-5.52 4.48-10 10-10" stroke="#333" fill="none"/><path d="M220 584.35c0-4.42 3.58-8 8-8h224c4.42 0 8 3.58 8 8v44c0 4.42-3.58 8-8 8H228c-4.42 0-8-3.58-8-8z" stroke="#000" stroke-opacity="0" fill="#fff" fill-opacity="0"/><use xlink:href="#b" transform="matrix(1,0,0,1,225.00000000000006,581.3523632131887) translate(82.57499999999999 28.6)"/><path d="M728 171.08c17.67 0 32 17.9 32 40s-14.33 40-32 40h-96c-17.67 0-32-17.9-32-40s14.33-40 32-40z" stroke="#99d5ca" fill="#19967d"/><use xlink:href="#c" transform="matrix(1,0,0,1,605.0000000000009,176.07677278040512) translate(56.025 27.799999999999997)"/><use xlink:href="#d" transform="matrix(1,0,0,1,605.0000000000009,176.07677278040512) translate(25.275 49.4)"/><use xlink:href="#e" transform="matrix(1,0,0,1,605.0000000000009,176.07677278040512) translate(63.824999999999996 49.4)"/><path d="M360 394.5c0-4.42 3.55-8.45 7.94-9l144.12-17.93c4.4-.55 7.94 2.6 7.94 7v104c0 4.43-3.58 8-8 8H368c-4.42 0-8-3.57-8-8z" stroke="#ffeca9" stroke-width="2" fill="#fcc438"/><use xlink:href="#f" transform="matrix(1,0,0,1,365.00000000000045,391.57677278037227) translate(18.549999999999997 48.6)"/><use xlink:href="#g" transform="matrix(1,0,0,1,365.00000000000045,391.57677278037227) translate(73.55 48.6)"/><use xlink:href="#h" transform="matrix(1,0,0,1,365.00000000000045,391.57677278037227) translate(93.55 48.6)"/><path d="M193.6 744.8c3.53-2.65 9.27-2.65 12.8 0l67.2 50.4c3.53 2.65 3.53 6.95 0 9.6l-67.2 50.4c-3.53 2.65-9.27 2.65-12.8 0l-67.2-50.4c-3.53-2.65-3.53-6.95 0-9.6z" stroke="#de5f85" stroke-width="4" fill="#fff"/><use xlink:href="#i" transform="matrix(1,0,0,1,125.00000000000003,745) translate(38.5 58.6)"/><use xlink:href="#j" transform="matrix(1,0,0,1,125.00000000000003,745) translate(75.5 58.6)"/><path d="M120 561.3c0-4.43 3.58-8 8-8h144c4.42 0 8 3.57 8 8v104c0 4.4-3.58 8-8 8H128c-4.42 0-8-3.6-8-8z" stroke="#b2b2b2" stroke-width="2" fill="#5e5e5e"/><use xlink:href="#k" transform="matrix(1,0,0,1,125.00000000000003,558.2883863901861) translate(31.574999999999996 47.8)"/><use xlink:href="#l" transform="matrix(1,0,0,1,125.00000000000003,558.2883863901861) translate(56.05 69.4)"/><path d="M680 253.08v4.8m0 9.6v9.62m0 9.6v4.8l-.4 3.13-.6 1.44m-6.45 6.44l-1.44.6-3.1.4h-6m-12 0h-12m-12 0h-12m-12 0h-12m-12 0h-12m-12 0h-12m-12 0h-12m-12 0h-12m-12 0h-12m-12 0h-6l-3.1.42-1.45.6m-6.45 6.44l-.6 1.44-.4 3.1v5.32m0 10.6v10.62m0 10.6v5.32" stroke="#333" stroke-width="3" fill="none"/><path d="M681.5 253.12h-3v-1.54h3z" fill="#333"/><path d="M440 373.72l-4.64-14.26h9.28z" stroke="#333" stroke-width="3" fill="#333"/><path d="M200 675.8v51.1" stroke="#333" stroke-width="3" fill="none"/><path d="M201.5 675.83h-3v-1.54h3z" fill="#333"/><path d="M200 738.8l-7.07-7.08 7.07-7.93 7.07 7.92z" stroke="#333" stroke-width="3" fill="#fff"/><path d="M300.48 78.58c0-4.42 3.58-8 8-8h836.75c4.42 0 8 3.58 8 8v25.15c0 4.42-3.58 8-8 8H308.48c-4.42 0-8-3.58-8-8z" stroke="#000" stroke-opacity="0" stroke-width="2" fill="#fff" fill-opacity="0"/><use xlink:href="#m" transform="matrix(1,0,0,1,304.47869298059913,74.57761197839864) translate(165.55444444444453 23.657777777777778)"/><use xlink:href="#n" transform="matrix(1,0,0,1,304.47869298059913,74.57761197839864) translate(231.03716049382723 23.657777777777778)"/><use xlink:href="#o" transform="matrix(1,0,0,1,304.47869298059913,74.57761197839864) translate(390.8470370370371 23.657777777777778)"/><use xlink:href="#p" transform="matrix(1,0,0,1,304.47869298059913,74.57761197839864) translate(444.60259259259266 23.657777777777778)"/><use xlink:href="#q" transform="matrix(1,0,0,1,304.47869298059913,74.57761197839864) translate(508.5556790123457 23.657777777777778)"/><use xlink:href="#r" transform="matrix(1,0,0,1,304.47869298059913,74.57761197839864) translate(594.3606172839507 23.657777777777778)"/><path d="M556.77 110.4h347.9M556.8 110.4h-1.03M904.63 110.4h1.03" stroke="#a9afb8" stroke-width="2" fill="none"/><path d="M300.48 119.73c0-4.42 3.58-8 8-8h837.7c4.42 0 8 3.58 8 8v2.85c0 4.42-3.58 8-8 8H308.5c-4.42 0-8-3.58-8-8z" stroke="#000" stroke-opacity="0" stroke-width="2" fill="#fff" fill-opacity="0"/><use xlink:href="#s" transform="matrix(1,0,0,1,304.4786929805996,115.73283593529744) translate(310.6105144032922 14.917037037037037)"/><use xlink:href="#t" transform="matrix(1,0,0,1,304.4786929805996,115.73283593529744) translate(354.75732510288066 14.917037037037037)"/><use xlink:href="#u" transform="matrix(1,0,0,1,304.4786929805996,115.73283593529744) translate(403.91792181069957 14.917037037037037)"/><use xlink:href="#v" transform="matrix(1,0,0,1,304.4786929805996,115.73283593529744) translate(416.3674074074074 14.917037037037037)"/><use xlink:href="#w" transform="matrix(1,0,0,1,304.4786929805996,115.73283593529744) translate(491.02183127572016 14.917037037037037)"/><use xlink:href="#x" transform="matrix(1,0,0,1,304.4786929805996,115.73283593529744) translate(508.01771604938267 14.917037037037037)"/><path d="M360 179c0-4.42 3.55-8.45 7.94-9l144.12-17.93c4.4-.55 7.94 2.6 7.94 7v104c0 4.43-3.58 8-8 8H368c-4.42 0-8-3.57-8-8z" stroke="#ffeca9" stroke-width="2" fill="#fcc438"/><use xlink:href="#f" transform="matrix(1,0,0,1,365.00000000000045,176.07677278040512) translate(7.575000000000003 48.6)"/><use xlink:href="#g" transform="matrix(1,0,0,1,365.00000000000045,176.07677278040512) translate(62.575 48.6)"/><use xlink:href="#y" transform="matrix(1,0,0,1,365.00000000000045,176.07677278040512) translate(82.575 48.6)"/><path d="M120 182.75c0-4.42 3.55-8.45 7.94-9l144.12-17.93c4.4-.55 7.94 2.6 7.94 7v104c0 4.43-3.58 8-8 8H128c-4.42 0-8-3.57-8-8z" stroke="#ffeca9" stroke-width="2" fill="#fcc438"/><use xlink:href="#z" transform="matrix(1,0,0,1,125.00000000000003,179.8267727804543) translate(7.174999999999997 48.6)"/><use xlink:href="#A" transform="matrix(1,0,0,1,125.00000000000003,179.8267727804543) translate(57.025000000000006 48.6)"/><path d="M357.5 214.87h-4.68m-9.37 0h-9.37m-9.37 0h-4.68l-.02-.02v-.02H315.37m-9.17 0h-4.58" stroke="#333" stroke-width="3" fill="none"/><path d="M359 216.37h-1.54v-3H359z" fill="#333"/><path d="M285.85 214.83l14.27-4.64v9.26z" stroke="#333" stroke-width="3" fill="#333"/><path d="M200 277.33v14.18l.4 3.13.6 1.44m6.45 6.44l1.44.6 3.1.4h6m12 0h12m12 0h12m12 0h12m12 0h12m12 0h12m12 0h12m12 0h12m12 0h12m12 0h6l3.1.42 1.45.6m6.45 6.44l.6 1.44.4 3.1v5.32m0 10.6v10.62m0 10.6v5.32" stroke="#333" stroke-width="3" fill="none"/><path d="M201.5 277.37h-3v-1.54h3z" fill="#333"/><path d="M440 373.72l-4.64-14.26h9.28z" stroke="#333" stroke-width="3" fill="#333"/><path d="M413.85 744.1c3.8-2.26 9.94-2.26 13.73 0l86.5 51.8c3.8 2.26 3.8 5.94 0 8.2l-86.5 51.8c-3.8 2.26-9.94 2.26-13.73 0l-86.5-51.8c-3.8-2.26-3.8-5.94 0-8.2z" stroke="#de5f85" stroke-width="4" fill="#fff"/><use xlink:href="#B" transform="matrix(1,0,0,1,325.4786929805992,745) translate(33.05 58.6)"/><use xlink:href="#j" transform="matrix(1,0,0,1,325.4786929805992,745) translate(121.95 58.6)"/><path d="M400 561.3c0-4.43 3.58-8 8-8h144c4.42 0 8 3.57 8 8v104c0 4.4-3.58 8-8 8H408c-4.42 0-8-3.6-8-8z" stroke="#b2b2b2" stroke-width="2" fill="#5e5e5e"/><use xlink:href="#C" transform="matrix(1,0,0,1,405.00000000000006,558.2883863901861) translate(20.025 47.8)"/><use xlink:href="#l" transform="matrix(1,0,0,1,405.00000000000006,558.2883863901861) translate(56.05 69.4)"/><path d="M600.48 561.3c0-4.43 3.58-8 8-8h144c4.42 0 8 3.57 8 8v104c0 4.4-3.58 8-8 8h-144c-4.42 0-8-3.6-8-8z" stroke="#b2b2b2" stroke-width="2" fill="#5e5e5e"/><use xlink:href="#D" transform="matrix(1,0,0,1,605.4786929805991,558.2883863901861) translate(34.074999999999996 47.8)"/><use xlink:href="#l" transform="matrix(1,0,0,1,605.4786929805991,558.2883863901861) translate(56.05 69.4)"/><path d="M635.04 744.8c3.53-2.65 9.26-2.65 12.8 0l67.2 50.4c3.53 2.65 3.53 6.95 0 9.6l-67.2 50.4c-3.54 2.65-9.27 2.65-12.8 0l-67.2-50.4c-3.54-2.65-3.54-6.95 0-9.6z" stroke="#de5f85" stroke-width="4" fill="#fff"/><use xlink:href="#E" transform="matrix(1,0,0,1,566.4360789417974,745) translate(36.074999999999996 58.6)"/><path d="M801.44 561.3c0-4.43 3.58-8 8-8h144c4.4 0 8 3.57 8 8v104c0 4.4-3.6 8-8 8h-144c-4.42 0-8-3.6-8-8z" stroke="#b2b2b2" stroke-width="2" fill="#5e5e5e"/><use xlink:href="#F" transform="matrix(1,0,0,1,806.436078941798,558.2883863901861) translate(49.55 47.8)"/><use xlink:href="#l" transform="matrix(1,0,0,1,806.436078941798,558.2883863901861) translate(56.05 69.4)"/><path d="M436.7 925.68c3.94-2 10.32-2 14.26 0l104.06 52.77c3.94 2 3.94 5.23 0 7.23l-104.06 52.77c-3.94 2-10.32 2-14.27 0l-104.06-52.77c-3.94-2-3.94-5.24 0-7.23z" stroke="#de5f85" stroke-width="4" fill="#fff"/><use xlink:href="#G" transform="matrix(1,0,0,1,330.504969276894,927.0639768230026) translate(55.074999999999996 58.6)"/><use xlink:href="#H" transform="matrix(1,0,0,1,330.504969276894,927.0639768230026) translate(125.025 58.6)"/><path d="M1060 208c0-4.42 3.58-8 8-8h464c4.42 0 8 3.58 8 8v64c0 4.42-3.58 8-8 8h-464c-4.42 0-8-3.58-8-8z" stroke="#fcc438" fill="#fff"/><use xlink:href="#I" transform="matrix(1,0,0,1,1065,205) translate(13.691358024691397 27.888888888888886)"/><use xlink:href="#J" transform="matrix(1,0,0,1,1065,205) translate(116.95061728395065 27.888888888888886)"/><use xlink:href="#K" transform="matrix(1,0,0,1,1065,205) translate(134.67901234567904 27.888888888888886)"/><use xlink:href="#L" transform="matrix(1,0,0,1,1065,205) translate(149.49382716049385 27.888888888888886)"/><use xlink:href="#M" transform="matrix(1,0,0,1,1065,205) translate(191.8641975308642 27.888888888888886)"/><use xlink:href="#N" transform="matrix(1,0,0,1,1065,205) translate(226.4320987654321 27.888888888888886)"/><use xlink:href="#O" transform="matrix(1,0,0,1,1065,205) translate(260.01234567901236 27.888888888888886)"/><use xlink:href="#P" transform="matrix(1,0,0,1,1065,205) translate(302.38271604938274 27.888888888888886)"/><use xlink:href="#Q" transform="matrix(1,0,0,1,1065,205) translate(398.037037037037 27.888888888888886)"/><use xlink:href="#R" transform="matrix(1,0,0,1,1065,205) translate(427.66666666666663 27.888888888888886)"/><use xlink:href="#S" transform="matrix(1,0,0,1,1065,205) translate(142.1851851851852 49.22222222222222)"/><use xlink:href="#T" transform="matrix(1,0,0,1,1065,205) translate(171.8148148148148 49.22222222222222)"/><use xlink:href="#U" transform="matrix(1,0,0,1,1065,205) translate(216.25925925925924 49.22222222222222)"/><path d="M1060 327.7c0-4.4 3.58-8 8-8h464c4.42 0 8 3.6 8 8v64c0 4.43-3.58 8-8 8h-464c-4.42 0-8-3.57-8-8z" stroke="#fcc438" fill="#fff"/><use xlink:href="#V" transform="matrix(1,0,0,1,1065,324.70817001809564) translate(17.074074074074133 27.888888888888886)"/><use xlink:href="#W" transform="matrix(1,0,0,1,1065,324.70817001809564) translate(143.14814814814818 27.888888888888886)"/><use xlink:href="#X" transform="matrix(1,0,0,1,1065,324.70817001809564) translate(173.71604938271608 27.888888888888886)"/><use xlink:href="#Y" transform="matrix(1,0,0,1,1065,324.70817001809564) translate(257.51851851851853 27.888888888888886)"/><use xlink:href="#M" transform="matrix(1,0,0,1,1065,324.70817001809564) translate(305.8641975308642 27.888888888888886)"/><use xlink:href="#Z" transform="matrix(1,0,0,1,1065,324.70817001809564) translate(340.4320987654321 27.888888888888886)"/><use xlink:href="#aa" transform="matrix(1,0,0,1,1065,324.70817001809564) translate(383.88888888888886 27.888888888888886)"/><use xlink:href="#ab" transform="matrix(1,0,0,1,1065,324.70817001809564) translate(418.45679012345676 27.888888888888886)"/><use xlink:href="#ac" transform="matrix(1,0,0,1,1065,324.70817001809564) translate(85.00000000000003 49.22222222222222)"/><use xlink:href="#ad" transform="matrix(1,0,0,1,1065,324.70817001809564) translate(161.04938271604942 49.22222222222222)"/><use xlink:href="#ae" transform="matrix(1,0,0,1,1065,324.70817001809564) translate(272.60493827160496 49.22222222222222)"/><use xlink:href="#af" transform="matrix(1,0,0,1,1065,324.70817001809564) translate(300.2098765432099 49.22222222222222)"/><use xlink:href="#ag" transform="matrix(1,0,0,1,1065,324.70817001809564) translate(339.66666666666663 49.22222222222222)"/><path d="M1060 447.42c0-4.42 3.58-8 8-8h464c4.42 0 8 3.58 8 8v45.23c0 4.42-3.58 8-8 8h-464c-4.42 0-8-3.58-8-8z" stroke="#fcc438" fill="#fff"/><use xlink:href="#ah" transform="matrix(1,0,0,1,1065,444.4163400361913) translate(94.03703703703707 29.555555555555557)"/><use xlink:href="#ai" transform="matrix(1,0,0,1,1065,444.4163400361913) translate(192.35802469135803 29.555555555555557)"/><use xlink:href="#aj" transform="matrix(1,0,0,1,1065,444.4163400361913) translate(225.93827160493828 29.555555555555557)"/><use xlink:href="#ak" transform="matrix(1,0,0,1,1065,444.4163400361913) translate(327.61728395061726 29.555555555555557)"/><path d="M1060 548.36c0-4.42 3.58-8 8-8h464c4.42 0 8 3.58 8 8v45.24c0 4.42-3.58 8-8 8h-464c-4.42 0-8-3.58-8-8z" stroke="#fcc438" fill="#fff"/><g><use xlink:href="#al" transform="matrix(1,0,0,1,1065,545.362796407888) translate(52.58024691358028 29.555555555555557)"/><use xlink:href="#am" transform="matrix(1,0,0,1,1065,545.362796407888) translate(129.22222222222223 29.555555555555557)"/><use xlink:href="#an" transform="matrix(1,0,0,1,1065,545.362796407888) translate(198.30864197530863 29.555555555555557)"/><use xlink:href="#S" transform="matrix(1,0,0,1,1065,545.362796407888) translate(251.59259259259258 29.555555555555557)"/><use xlink:href="#ao" transform="matrix(1,0,0,1,1065,545.362796407888) translate(281.2222222222222 29.555555555555557)"/><use xlink:href="#ap" transform="matrix(1,0,0,1,1065,545.362796407888) translate(320.62962962962956 29.555555555555557)"/><use xlink:href="#aq" transform="matrix(1,0,0,1,1065,545.362796407888) translate(359.14814814814815 29.555555555555557)"/></g><path d="M440 489.08v4.7m0 9.44v4.7l-.4 3.13-.6 1.44m-6.45 6.43l-1.44.6-3.1.4h-6m-12.02 0h-12.02m-12 0h-12.03m-12 0H349.9m-12 0h-12.02m-12.02 0h-12m-12.03 0h-12m-12.03 0h-12m-12.03 0h-12m-12.03 0h-6l-3.05.4-1.42.6m-6.3 6.28l-.58 1.42-.4 3.05" stroke="#333" stroke-width="3" fill="none"/><path d="M441.5 489.12h-3v-1.54h3z" fill="#333"/><path d="M200 547.43l-4.64-14.26h9.28z" stroke="#333" stroke-width="3" fill="#333"/><path d="M440 489.08v4.7m0 9.44v4.7l.4 3.13.6 1.44m6.45 6.43l1.44.6 3.1.4h4.07m8.13 0h4.06l3.05.4 1.42.6m6.3 6.28l.58 1.42.4 3.05" stroke="#333" stroke-width="3" fill="none"/><path d="M441.5 489.12h-3v-1.54h3z" fill="#333"/><path d="M480 547.43l-4.64-14.26h9.28z" stroke="#333" stroke-width="3" fill="#333"/><path d="M440 489.08v4.7m0 9.44v4.7l.4 3.13.6 1.44m6.45 6.43l1.44.6 3.1.4h6m11.98 0h12m11.98 0h11.98m12 0h11.98m11.98 0h12m11.98 0h12m11.97 0h12m11.98 0h11.98m12 0h12m11.98 0h6l3.04.4 1.4.6m6.3 6.28l.6 1.42.4 3.05" stroke="#333" stroke-width="3" fill="none"/><path d="M441.5 489.12h-3v-1.54h3z" fill="#333"/><path d="M679.5 547.43l-4.63-14.26h9.27z" stroke="#333" stroke-width="3" fill="#333"/><path d="M440 489.08v4.7m0 9.44v4.7l.4 3.13.6 1.44m6.45 6.43l1.44.6 3.1.4h6.14m12.3 0h12.27m12.3 0h12.28m12.3 0h12.27m12.3 0h12.28m12.28 0H581m12.28 0h12.3m12.27 0h12.3m12.27 0h12.3m12.27 0h12.28m12.28 0h12.3m12.27 0h12.3m12.27 0H753m12.28 0h12.28m12.3 0h12.27m12.3 0h12.27m12.3 0h12.27m12.3 0h6.13l3.05.4 1.4.6m6.3 6.28l.6 1.42.4 3.05" stroke="#333" stroke-width="3" fill="none"/><path d="M441.5 489.12h-3v-1.54h3z" fill="#333"/><path d="M881.44 547.43l-4.64-14.26h9.27z" stroke="#333" stroke-width="3" fill="#333"/><path d="M960.1 174.83c22.03 0 39.9 17.9 39.9 40s-17.87 40-39.9 40H840.38c-22.04 0-39.9-17.9-39.9-40s17.86-40 39.9-40z" stroke="#99d5ca" fill="#19967d"/><g><use xlink:href="#c" transform="matrix(1,0,0,1,805.4786929805989,179.8267727804543) translate(76.025 27.799999999999997)"/><use xlink:href="#ar" transform="matrix(1,0,0,1,805.4786929805989,179.8267727804543) translate(24.650000000000006 49.4)"/><use xlink:href="#as" transform="matrix(1,0,0,1,805.4786929805989,179.8267727804543) translate(94.50000000000001 49.4)"/></g><path d="M900.24 256.83v8.67m0 17.34v8.67l-.4 3.13-.6 1.44m-6.45 6.44l-1.45.6-3.1.4h-6.07m-12.12 0h-12.12m-12.1 0H833.7m-12.1 0h-12.13m-12.1 0h-12.13m-12.12 0H761m-12.1 0h-12.13m-12.12 0h-12.12m-12.12 0h-12.1m-12.12 0h-12.12m-12.12 0h-12.1m-12.13 0h-12.1m-12.13 0h-12.12m-12.1 0H567.1m-12.12 0h-12.12m-12.1 0h-12.13m-12.12 0H494.4m-12.1 0h-12.12m-12.12 0H452l-3.1.42-1.45.6m-6.45 6.44l-.6 1.44-.4 3.1v5.32m0 10.6v10.62m0 10.6v5.32" stroke="#333" stroke-width="3" fill="none"/><path d="M901.74 256.87h-3v-1.54h3z" fill="#333"/><path d="M440 373.72l-4.64-14.26h9.28z" stroke="#333" stroke-width="3" fill="#333"/><path d="M480 675.8v19.56c0 6.63-5.37 12-12 12h-35.9c-6.6 0-12 5.38-12 12v7.08" stroke="#333" stroke-width="3" fill="none"/><path d="M481.5 675.83h-3v-1.54h3z" fill="#333"/><path d="M420.1 738.32l-7.06-7.07 7.07-7.93 7.08 7.93z" stroke="#333" stroke-width="3" fill="#fff"/><path d="M399 613.3c0 .82-.67 1.5-1.5 1.5s-1.5-.68-1.5-1.5c0-.84.67-1.5 1.5-1.5s1.5.66 1.5 1.5zm-6 0c0 .82-.66 1.5-1.5 1.5-.82 0-1.5-.68-1.5-1.5 0-.84.68-1.5 1.5-1.5.84 0 1.5.66 1.5 1.5zm-6 0c0 .82-.66 1.5-1.5 1.5-.8 0-1.5-.68-1.5-1.5 0-.84.7-1.5 1.5-1.5.84 0 1.5.66 1.5 1.5zm-5.98 0c0 .82-.67 1.5-1.5 1.5s-1.5-.68-1.5-1.5c0-.84.67-1.5 1.5-1.5s1.5.66 1.5 1.5zm-6 0c0 .82-.66 1.5-1.5 1.5-.82 0-1.5-.68-1.5-1.5 0-.84.68-1.5 1.5-1.5.84 0 1.5.66 1.5 1.5zm-5.98 0c0 .82-.67 1.5-1.5 1.5s-1.5-.68-1.5-1.5c0-.84.67-1.5 1.5-1.5s1.5.66 1.5 1.5zm-6 0c0 .82-.67 1.5-1.5 1.5-.82 0-1.5-.68-1.5-1.5 0-.84.68-1.5 1.5-1.5.83 0 1.5.66 1.5 1.5zm-6 0c0 .82-.66 1.5-1.5 1.5-.82 0-1.5-.68-1.5-1.5 0-.84.68-1.5 1.5-1.5.84 0 1.5.66 1.5 1.5zm-5.98 0c0 .82-.67 1.5-1.5 1.5s-1.5-.68-1.5-1.5c0-.84.67-1.5 1.5-1.5s1.5.66 1.5 1.5zm-6 0c0 .82-.66 1.5-1.5 1.5-.82 0-1.5-.68-1.5-1.5 0-.84.68-1.5 1.5-1.5.84 0 1.5.66 1.5 1.5zm-6 0c0 .82-.66 1.5-1.5 1.5-.8 0-1.5-.68-1.5-1.5 0-.84.7-1.5 1.5-1.5.84 0 1.5.66 1.5 1.5zm-5.98 0c0 .82-.67 1.5-1.5 1.5s-1.5-.68-1.5-1.5c0-.84.67-1.5 1.5-1.5s1.5.66 1.5 1.5zm-6 0c0 .82-.66 1.5-1.5 1.5-.82 0-1.5-.68-1.5-1.5 0-.84.68-1.5 1.5-1.5.84 0 1.5.66 1.5 1.5zm-5.98 0c0 .82-.67 1.5-1.5 1.5s-1.5-.68-1.5-1.5c0-.84.67-1.5 1.5-1.5s1.5.66 1.5 1.5zm-6 0c0 .82-.67 1.5-1.5 1.5-.82 0-1.5-.68-1.5-1.5 0-.84.68-1.5 1.5-1.5.83 0 1.5.66 1.5 1.5zm-6 0c0 .82-.66 1.5-1.5 1.5-.82 0-1.5-.68-1.5-1.5 0-.84.68-1.5 1.5-1.5.84 0 1.5.66 1.5 1.5zm-5.98 0c0 .82-.67 1.5-1.5 1.5s-1.5-.68-1.5-1.5c0-.84.67-1.5 1.5-1.5s1.5.66 1.5 1.5z" fill="#de5f85"/><path d="M399 614.8h-1.54v-3H399z" fill="#de5f85"/><path d="M285.85 613.3l14.27-4.65v9.27z" stroke="#de5f85" stroke-width="3" fill="#de5f85"/><path d="M599.48 613.3c0 .82-.67 1.5-1.5 1.5s-1.5-.68-1.5-1.5c0-.84.67-1.5 1.5-1.5s1.5.66 1.5 1.5zm-5.45 0c0 .82-.68 1.5-1.5 1.5-.83 0-1.5-.68-1.5-1.5 0-.84.67-1.5 1.5-1.5.82 0 1.5.66 1.5 1.5zm-5.46 0c0 .82-.67 1.5-1.5 1.5s-1.5-.68-1.5-1.5c0-.84.67-1.5 1.5-1.5s1.5.66 1.5 1.5z" fill="#de5f85"/><path d="M599.48 614.8h-1.54v-3h1.54z" fill="#de5f85"/><path d="M565.85 613.3l14.27-4.65v9.27z" stroke="#de5f85" stroke-width="3" fill="#de5f85"/><path d="M800.44 613.3c0 .82-.68 1.5-1.5 1.5-.83 0-1.5-.68-1.5-1.5 0-.84.67-1.5 1.5-1.5.82 0 1.5.66 1.5 1.5zm-5.62 0c0 .82-.67 1.5-1.5 1.5-.82 0-1.5-.68-1.5-1.5 0-.84.68-1.5 1.5-1.5.83 0 1.5.66 1.5 1.5zm-5.6 0c0 .82-.68 1.5-1.5 1.5-.84 0-1.5-.68-1.5-1.5 0-.84.66-1.5 1.5-1.5.82 0 1.5.66 1.5 1.5zm-5.62 0c0 .82-.67 1.5-1.5 1.5s-1.5-.68-1.5-1.5c0-.84.67-1.5 1.5-1.5s1.5.66 1.5 1.5z" fill="#de5f85"/><path d="M800.44 614.8h-1.54v-3h1.54z" fill="#de5f85"/><path d="M766.33 613.3l14.27-4.65v9.27z" stroke="#de5f85" stroke-width="3" fill="#de5f85"/><path d="M881.44 675.8V868c0 6.63-5.38 12-12 12h-413.6c-6.64 0-12 5.37-12 12v16.3" stroke="#333" stroke-width="3" fill="none"/><path d="M882.94 675.83h-3v-1.54h3z" fill="#333"/><path d="M443.83 920.16l-7.07-7.07 7.07-7.94 7.07 7.93z" stroke="#333" stroke-width="3" fill="#fff"/><path d="M193.38 926.17c3.8-2.27 9.93-2.27 13.72 0l86.5 51.8c3.8 2.25 3.8 5.93 0 8.2l-86.5 51.8c-3.8 2.25-9.93 2.25-13.72 0l-86.52-51.8c-3.8-2.27-3.8-5.95 0-8.2z" stroke="#de5f85" stroke-width="4" fill="#fff"/><g><use xlink:href="#at" transform="matrix(1,0,0,1,105.00000000000003,927.0639768230026) translate(23.75 58.6)"/><use xlink:href="#au" transform="matrix(1,0,0,1,105.00000000000003,927.0639768230026) translate(67.30000000000001 58.6)"/><use xlink:href="#av" transform="matrix(1,0,0,1,105.00000000000003,927.0639768230026) translate(122.25 58.6)"/></g><path d="M480 675.8v19.8c0 6.63 5.37 12 12 12h137.44c6.62 0 12 5.37 12 12v7.3" stroke="#333" stroke-width="3" fill="none"/><path d="M481.5 675.83h-3v-1.54h3z" fill="#333"/><path d="M641.44 738.8l-7.07-7.08 7.07-7.93 7.07 7.92z" stroke="#333" stroke-width="3" fill="#fff"/><path d="M680.48 675.8v25.5c0 6.62 5.37 12 12 12h25.76c6.63 0 12 5.36 12 12V858c0 6.63-5.37 12-12 12h-506c-6.63 0-12 5.37-12 12v26.5" stroke="#333" stroke-width="3" fill="none"/><path d="M681.98 675.83h-3v-1.54h3z" fill="#333"/><path d="M200.24 920.37l-7.07-7.07 7.07-7.93 7.07 7.93z" stroke="#333" stroke-width="3" fill="#fff"/><path d="M598.5 211.08h-7.1m-14.23 0h-14.22m-14.22 0h-7.1M598.46 211.08H600" stroke="#333" stroke-width="3" fill="none"/><path d="M525.85 211.08l14.27-4.64v9.27z" stroke="#333" stroke-width="3" fill="#333"/><g><path d="M28 460c-4.42 0-8-3.58-8-8V228c0-4.42 3.58-8 8-8h44c4.42 0 8 3.58 8 8v224c0 4.42-3.58 8-8 8z" stroke="#000" stroke-opacity="0" fill="#fff" fill-opacity="0"/></g><g><use xlink:href="#aw" transform="matrix(6.123233995736766e-17,-1,1,6.123233995736766e-17,25.000000000000057,455) translate(40.17499999999998 28.6)"/><use xlink:href="#ax" transform="matrix(6.123233995736766e-17,-1,1,6.123233995736766e-17,25.000000000000057,455) translate(85.12499999999999 28.6)"/></g><g><path d="M28 733.3c-4.42 0-8-3.6-8-8v-224c0-4.43 3.58-8 8-8h44c4.42 0 8 3.57 8 8v224c0 4.4-3.58 8-8 8z" stroke="#000" stroke-opacity="0" fill="#fff" fill-opacity="0"/></g><g><use xlink:href="#ay" transform="matrix(6.123233995736766e-17,-1,1,6.123233995736766e-17,25,728.2883863901861) translate(90.55 28.6)"/></g><g><path d="M28 980c-4.42 0-8-3.58-8-8V748c0-4.42 3.58-8 8-8h44c4.42 0 8 3.58 8 8v224c0 4.42-3.58 8-8 8z" stroke="#000" stroke-opacity="0" fill="#fff" fill-opacity="0"/></g><g><use xlink:href="#az" transform="matrix(6.123233995736766e-17,-1,1,6.123233995736766e-17,25,975) translate(39.599999999999994 28.6)"/><use xlink:href="#aA" transform="matrix(6.123233995736766e-17,-1,1,6.123233995736766e-17,25,975) translate(83.5 28.6)"/></g><defs><path fill="#333" d="M175 0L67-191c6 58 2 128 3 191H24v-248h59L193-55c-6-58-2-129-3-193h46V0h-61" id="aB"/><path fill="#333" d="M110-194c64 0 96 36 96 99 0 64-35 99-97 99-61 0-95-36-95-99 0-62 34-99 96-99zm-1 164c35 0 45-28 45-65 0-40-10-65-43-65-34 0-45 26-45 65 0 36 10 65 43 65" id="aC"/><path fill="#333" d="M115-3C79 11 28 4 28-45v-112H4v-33h27l15-45h31v45h36v33H77v99c-1 23 16 31 38 25v30" id="aD"/><path fill="#333" d="M185-48c-13 30-37 53-82 52C43 2 14-33 14-96s30-98 90-98c62 0 83 45 84 108H66c0 31 8 55 39 56 18 0 30-7 34-22zm-45-69c5-46-57-63-70-21-2 6-4 13-4 21h74" id="aE"/><path fill="#333" d="M137-138c1-29-70-34-71-4 15 46 118 7 119 86 1 83-164 76-172 9l43-7c4 19 20 25 44 25 33 8 57-30 24-41C81-84 22-81 20-136c-2-80 154-74 161-7" id="aF"/><g id="a"><use transform="matrix(0.07469135802469135,0,0,0.07469135802469135,0,0)" xlink:href="#aB"/><use transform="matrix(0.07469135802469135,0,0,0.07469135802469135,19.34506172839506,0)" xlink:href="#aC"/><use transform="matrix(0.07469135802469135,0,0,0.07469135802469135,35.70246913580246,0)" xlink:href="#aD"/><use transform="matrix(0.07469135802469135,0,0,0.07469135802469135,44.59074074074073,0)" xlink:href="#aE"/><use transform="matrix(0.07469135802469135,0,0,0.07469135802469135,59.52901234567899,0)" xlink:href="#aF"/></g><path fill="#de5f85" d="M25-224v-37h50v37H25zM25 0v-190h50V0H25" id="aG"/><path fill="#de5f85" d="M135-194c87-1 58 113 63 194h-50c-7-57 23-157-34-157-59 0-34 97-39 157H25l-1-190h47c2 12-1 28 3 38 12-26 28-41 61-42" id="aH"/><path fill="#de5f85" d="M114-157C55-157 80-60 75 0H25v-261h50l-1 109c12-26 28-41 61-42 86-1 58 113 63 194h-50c-7-57 23-157-34-157" id="aI"/><path fill="#de5f85" d="M185-48c-13 30-37 53-82 52C43 2 14-33 14-96s30-98 90-98c62 0 83 45 84 108H66c0 31 8 55 39 56 18 0 30-7 34-22zm-45-69c5-46-57-63-70-21-2 6-4 13-4 21h74" id="aJ"/><path fill="#de5f85" d="M135-150c-39-12-60 13-60 57V0H25l-1-190h47c2 13-1 29 3 40 6-28 27-53 61-41v41" id="aK"/><path fill="#de5f85" d="M115-3C79 11 28 4 28-45v-112H4v-33h27l15-45h31v45h36v33H77v99c-1 23 16 31 38 25v30" id="aL"/><path fill="#de5f85" d="M137-138c1-29-70-34-71-4 15 46 118 7 119 86 1 83-164 76-172 9l43-7c4 19 20 25 44 25 33 8 57-30 24-41C81-84 22-81 20-136c-2-80 154-74 161-7" id="aM"/><g id="b"><use transform="matrix(0.05,0,0,0.05,0,0)" xlink:href="#aG"/><use transform="matrix(0.05,0,0,0.05,5,0)" xlink:href="#aH"/><use transform="matrix(0.05,0,0,0.05,15.950000000000001,0)" xlink:href="#aI"/><use transform="matrix(0.05,0,0,0.05,26.900000000000002,0)" xlink:href="#aJ"/><use transform="matrix(0.05,0,0,0.05,36.900000000000006,0)" xlink:href="#aK"/><use transform="matrix(0.05,0,0,0.05,43.900000000000006,0)" xlink:href="#aG"/><use transform="matrix(0.05,0,0,0.05,48.900000000000006,0)" xlink:href="#aL"/><use transform="matrix(0.05,0,0,0.05,54.85,0)" xlink:href="#aM"/></g><path fill="#fff" d="M194-120c59 52 2 134-86 124-53-6-90-18-98-63l31-7c8 30 29 43 70 43 46 0 84-17 71-62-32-43-135-20-137-98-3-89 178-90 191-16l-30 9c-8-48-127-53-127 5 0 53 81 35 115 65" id="aN"/><path fill="#fff" d="M51-54c-9 22 5 41 31 30L79-1C43 14 10-4 19-52l22-115H19l5-23h22l19-43h21l-9 43h35l-4 23H73" id="aO"/><path fill="#fff" d="M165-48c-4 18 1 34 23 27l-3 20c-29 8-62 0-52-35h-2C116-14 99 4 63 4 30 4 8-16 8-49c0-68 71-67 138-67 10-26 0-56-31-54-26 1-42 9-47 31l-32-5c8-67 160-71 144 15-5 28-9 54-15 81zM42-50c3 52 80 24 89-6 7-12 7-24 11-38-47 1-103-4-100 44" id="aP"/><path fill="#fff" d="M66-151c12-25 30-51 66-40l-6 26C45-176 58-65 38 0H6l36-190h30" id="aQ"/><g id="c"><use transform="matrix(0.05,0,0,0.05,0,0)" xlink:href="#aN"/><use transform="matrix(0.05,0,0,0.05,12,0)" xlink:href="#aO"/><use transform="matrix(0.05,0,0,0.05,17,0)" xlink:href="#aP"/><use transform="matrix(0.05,0,0,0.05,27,0)" xlink:href="#aQ"/><use transform="matrix(0.05,0,0,0.05,32.95,0)" xlink:href="#aO"/></g><path fill="#fff" d="M119 0H84L31-248h34l41 218 126-218h36" id="aR"/><path fill="#fff" d="M50-231l6-30h32l-6 30H50zM6 0l37-190h31L37 0H6" id="aS"/><path fill="#fff" d="M55-144c13 50 104 24 104 88C159 21 15 23 1-39l26-10c6 40 102 42 102-4-13-50-104-23-104-87 0-71 143-71 148-8l-29 4c-5-35-85-37-89 0" id="aT"/><g id="d"><use transform="matrix(0.05,0,0,0.05,0,0)" xlink:href="#aR"/><use transform="matrix(0.05,0,0,0.05,11.65,0)" xlink:href="#aS"/><use transform="matrix(0.05,0,0,0.05,15.600000000000001,0)" xlink:href="#aT"/><use transform="matrix(0.05,0,0,0.05,24.6,0)" xlink:href="#aS"/><use transform="matrix(0.05,0,0,0.05,28.55,0)" xlink:href="#aO"/></g><path fill="#fff" d="M188 0h-37l-8-164L71 0H34L18-190h31l8 164 75-164h34l8 164 74-164h31" id="aU"/><path fill="#fff" d="M111-194c62-3 86 47 72 106H45c-7 38 6 69 45 68 27-1 43-14 53-32l24 11C152-15 129 4 87 4 38 3 12-23 12-71c0-70 32-119 99-123zm44 81c14-66-71-72-95-28-4 8-8 17-11 28h106" id="aV"/><path fill="#fff" d="M68-162c25-46 127-43 121 31C183-60 169 1 98 4 69 5 53-11 43-31L36 0H5l52-261h31zm88 36c2-27-9-43-34-43-55 0-70 51-70 103 0 29 15 45 43 46 52 0 58-58 61-106" id="aW"/><g id="e"><use transform="matrix(0.05,0,0,0.05,0,0)" xlink:href="#aU"/><use transform="matrix(0.05,0,0,0.05,12.950000000000001,0)" xlink:href="#aV"/><use transform="matrix(0.05,0,0,0.05,22.950000000000003,0)" xlink:href="#aW"/><use transform="matrix(0.05,0,0,0.05,32.95,0)" xlink:href="#aT"/><use transform="matrix(0.05,0,0,0.05,41.95,0)" xlink:href="#aS"/><use transform="matrix(0.05,0,0,0.05,45.900000000000006,0)" xlink:href="#aO"/><use transform="matrix(0.05,0,0,0.05,50.900000000000006,0)" xlink:href="#aV"/></g><path fill="#333" d="M187 0l-14-72H61L19 0h-37l149-248h38L221 0h-34zm-19-99l-22-123L76-99h92" id="aX"/><path fill="#333" d="M55-144c13 50 104 24 104 88C159 21 15 23 1-39l26-10c6 40 102 42 102-4-13-50-104-23-104-87 0-71 143-71 148-8l-29 4c-5-35-85-37-89 0" id="aY"/><path fill="#333" d="M127 0L80-88 50-66 37 0H6l51-261h31L57-100l99-90h39l-93 82L161 0h-34" id="aZ"/><path fill="#333" d="M111-194c62-3 86 47 72 106H45c-7 38 6 69 45 68 27-1 43-14 53-32l24 11C152-15 129 4 87 4 38 3 12-23 12-71c0-70 32-119 99-123zm44 81c14-66-71-72-95-28-4 8-8 17-11 28h106" id="ba"/><path fill="#333" d="M133-28C103 26-5 8 13-77c13-62 24-115 90-117 29-1 46 15 56 35l19-102h32L160 0h-30zM45-64c-2 27 10 43 35 43 54-1 69-50 69-103 0-29-15-46-42-46-53-1-58 58-62 106" id="bb"/><g id="f"><use transform="matrix(0.05,0,0,0.05,0,0)" xlink:href="#aX"/><use transform="matrix(0.05,0,0,0.05,12,0)" xlink:href="#aY"/><use transform="matrix(0.05,0,0,0.05,21,0)" xlink:href="#aZ"/><use transform="matrix(0.05,0,0,0.05,30,0)" xlink:href="#ba"/><use transform="matrix(0.05,0,0,0.05,40,0)" xlink:href="#bb"/></g><path fill="#333" d="M51-54c-9 22 5 41 31 30L79-1C43 14 10-4 19-52l22-115H19l5-23h22l19-43h21l-9 43h35l-4 23H73" id="bc"/><path fill="#333" d="M30-147c31-64 166-65 159 27C183-49 158 1 86 4 9 8 1-88 30-147zM88-20c53 0 68-48 68-100 0-31-11-51-44-50-52 1-68 46-68 97 0 32 13 53 44 53" id="bd"/><g id="g"><use transform="matrix(0.05,0,0,0.05,0,0)" xlink:href="#bc"/><use transform="matrix(0.05,0,0,0.05,5,0)" xlink:href="#bd"/></g><path fill="#333" d="M6 0l50-261h32L37 0H6" id="be"/><path fill="#333" d="M103-194c29 0 47 14 56 36 2-11 5-23 8-32h30L160-5C157 61 82 97 21 62 9 55 4 45 1 30l28-7c7 42 83 31 92-3 4-16 9-38 13-55-13 20-29 36-62 36-40 0-60-25-60-64 0-71 23-131 91-131zm4 24c-53 0-58 54-61 104-2 27 10 44 36 44 49 0 65-50 67-102 1-29-15-46-42-46" id="bf"/><path fill="#333" d="M50-231l6-30h32l-6 30H50zM6 0l37-190h31L37 0H6" id="bg"/><path fill="#333" d="M67-158c22-48 132-52 116 29L158 0h-32l25-140c3-38-53-32-70-12C52-117 51-52 38 0H6l36-190h30" id="bh"/><g id="h"><use transform="matrix(0.05,0,0,0.05,0,0)" xlink:href="#be"/><use transform="matrix(0.05,0,0,0.05,3.95,0)" xlink:href="#bd"/><use transform="matrix(0.05,0,0,0.05,13.949999999999998,0)" xlink:href="#bf"/><use transform="matrix(0.05,0,0,0.05,23.95,0)" xlink:href="#bg"/><use transform="matrix(0.05,0,0,0.05,27.899999999999995,0)" xlink:href="#bh"/></g><path fill="#333" d="M205 0l-28-72H64L36 0H1l101-248h38L239 0h-34zm-38-99l-47-123c-12 45-31 82-46 123h93" id="bi"/><path fill="#333" d="M85-194c31 0 48 13 60 33l-1-100h32l1 261h-30c-2-10 0-23-3-31C134-8 116 4 85 4 32 4 16-35 15-94c0-66 23-100 70-100zm9 24c-40 0-46 34-46 75 0 40 6 74 45 74 42 0 51-32 51-76 0-42-9-74-50-73" id="bj"/><g id="i"><use transform="matrix(0.05,0,0,0.05,0,0)" xlink:href="#bi"/><use transform="matrix(0.05,0,0,0.05,12,0)" xlink:href="#bj"/><use transform="matrix(0.05,0,0,0.05,22,0)" xlink:href="#bj"/></g><path fill="#333" d="M30-248c87 1 191-15 191 75 0 78-77 80-158 76V0H30v-248zm33 125c57 0 124 11 124-50 0-59-68-47-124-48v98" id="bk"/><path fill="#333" d="M100-194c62-1 85 37 85 99 1 63-27 99-86 99S16-35 15-95c0-66 28-99 85-99zM99-20c44 1 53-31 53-75 0-43-8-75-51-75s-53 32-53 75 10 74 51 75" id="bl"/><path fill="#333" d="M135-143c-3-34-86-38-87 0 15 53 115 12 119 90S17 21 10-45l28-5c4 36 97 45 98 0-10-56-113-15-118-90-4-57 82-63 122-42 12 7 21 19 24 35" id="bm"/><path fill="#333" d="M59-47c-2 24 18 29 38 22v24C64 9 27 4 27-40v-127H5v-23h24l9-43h21v43h35v23H59v120" id="bn"/><g id="j"><use transform="matrix(0.05,0,0,0.05,0,0)" xlink:href="#bk"/><use transform="matrix(0.05,0,0,0.05,12,0)" xlink:href="#bl"/><use transform="matrix(0.05,0,0,0.05,22,0)" xlink:href="#bm"/><use transform="matrix(0.05,0,0,0.05,31,0)" xlink:href="#bn"/></g><path fill="#fff" d="M249-183c0 48-29 72-75 77L221 0h-36l-43-103H65L45 0H11l48-248c83 2 190-17 190 65zm-34 3c0-55-74-39-127-41l-18 92c63-1 145 13 145-51" id="bo"/><path fill="#fff" d="M103-194c29 0 47 14 56 36 2-11 5-23 8-32h30L160-5C157 61 82 97 21 62 9 55 4 45 1 30l28-7c7 42 83 31 92-3 4-16 9-38 13-55-13 20-29 36-62 36-40 0-60-25-60-64 0-71 23-131 91-131zm4 24c-53 0-58 54-61 104-2 27 10 44 36 44 49 0 65-50 67-102 1-29-15-46-42-46" id="bp"/><path fill="#fff" d="M133-28C103 26-5 8 13-77c13-62 24-115 90-117 29-1 46 15 56 35l19-102h32L160 0h-30zM45-64c-2 27 10 43 35 43 54-1 69-50 69-103 0-29-15-46-42-46-53-1-58 58-62 106" id="bq"/><g id="k"><use transform="matrix(0.05,0,0,0.05,0,0)" xlink:href="#bo"/><use transform="matrix(0.05,0,0,0.05,12.950000000000001,0)" xlink:href="#aV"/><use transform="matrix(0.05,0,0,0.05,22.950000000000003,0)" xlink:href="#bp"/><use transform="matrix(0.05,0,0,0.05,32.95,0)" xlink:href="#aS"/><use transform="matrix(0.05,0,0,0.05,36.900000000000006,0)" xlink:href="#aT"/><use transform="matrix(0.05,0,0,0.05,45.900000000000006,0)" xlink:href="#aO"/><use transform="matrix(0.05,0,0,0.05,50.900000000000006,0)" xlink:href="#aV"/><use transform="matrix(0.05,0,0,0.05,60.900000000000006,0)" xlink:href="#aQ"/><use transform="matrix(0.05,0,0,0.05,66.85000000000001,0)" xlink:href="#aV"/><use transform="matrix(0.05,0,0,0.05,76.85000000000001,0)" xlink:href="#bq"/></g><path fill="#fff" d="M62-99C39-31 123 0 170-40s38-139 58-208h34C234-144 253 4 115 4 49 4 18-43 31-112l26-136h34" id="br"/><g id="l"><use transform="matrix(0.05,0,0,0.05,0,0)" xlink:href="#br"/><use transform="matrix(0.05,0,0,0.05,12.950000000000001,0)" xlink:href="#aT"/><use transform="matrix(0.05,0,0,0.05,21.950000000000003,0)" xlink:href="#aV"/><use transform="matrix(0.05,0,0,0.05,31.950000000000003,0)" xlink:href="#aQ"/></g><path fill="#333" d="M238-95c0 69-44 99-111 99C63 4 22-25 22-93v-155h51v151c-1 38 19 59 55 60 90 1 49-130 58-211h52v153" id="bs"/><path fill="#333" d="M135-150c-39-12-60 13-60 57V0H25l-1-190h47c2 13-1 29 3 40 6-28 27-53 61-41v41" id="bt"/><g id="m"><use transform="matrix(0.0728395061728395,0,0,0.0728395061728395,0,0)" xlink:href="#bs"/><use transform="matrix(0.0728395061728395,0,0,0.0728395061728395,18.86543209876543,0)" xlink:href="#aF"/><use transform="matrix(0.0728395061728395,0,0,0.0728395061728395,33.43333333333333,0)" xlink:href="#aE"/><use transform="matrix(0.0728395061728395,0,0,0.0728395061728395,48.00123456790123,0)" xlink:href="#bt"/></g><path fill="#333" d="M240-174c0 40-23 61-54 70L253 0h-59l-57-94H76V0H24v-248c93 4 217-23 216 74zM76-134c48-2 112 12 112-38 0-48-66-32-112-35v73" id="bu"/><path fill="#333" d="M195-6C206 82 75 100 31 46c-4-6-6-13-8-21l49-6c3 16 16 24 34 25 40 0 42-37 40-79-11 22-30 35-61 35-53 0-70-43-70-97 0-56 18-96 73-97 30 0 46 14 59 34l2-30h47zm-90-29c32 0 41-27 41-63 0-35-9-62-40-62-32 0-39 29-40 63 0 36 9 62 39 62" id="bv"/><path fill="#333" d="M25-224v-37h50v37H25zM25 0v-190h50V0H25" id="bw"/><path fill="#333" d="M133-34C117-15 103 5 69 4 32 3 11-16 11-54c-1-60 55-63 116-61 1-26-3-47-28-47-18 1-26 9-28 27l-52-2c7-38 36-58 82-57s74 22 75 68l1 82c-1 14 12 18 25 15v27c-30 8-71 5-69-32zm-48 3c29 0 43-24 42-57-32 0-66-3-65 30 0 17 8 27 23 27" id="bx"/><path fill="#333" d="M135-194c87-1 58 113 63 194h-50c-7-57 23-157-34-157-59 0-34 97-39 157H25l-1-190h47c2 12-1 28 3 38 12-26 28-41 61-42" id="by"/><g id="n"><use transform="matrix(0.0728395061728395,0,0,0.0728395061728395,0,0)" xlink:href="#bu"/><use transform="matrix(0.0728395061728395,0,0,0.0728395061728395,18.86543209876543,0)" xlink:href="#aE"/><use transform="matrix(0.0728395061728395,0,0,0.0728395061728395,33.43333333333333,0)" xlink:href="#bv"/><use transform="matrix(0.0728395061728395,0,0,0.0728395061728395,49.38518518518518,0)" xlink:href="#bw"/><use transform="matrix(0.0728395061728395,0,0,0.0728395061728395,56.66913580246913,0)" xlink:href="#aF"/><use transform="matrix(0.0728395061728395,0,0,0.0728395061728395,71.23703703703703,0)" xlink:href="#aD"/><use transform="matrix(0.0728395061728395,0,0,0.0728395061728395,79.90493827160493,0)" xlink:href="#bt"/><use transform="matrix(0.0728395061728395,0,0,0.0728395061728395,90.10246913580247,0)" xlink:href="#bx"/><use transform="matrix(0.0728395061728395,0,0,0.0728395061728395,104.67037037037036,0)" xlink:href="#aD"/><use transform="matrix(0.0728395061728395,0,0,0.0728395061728395,113.33827160493827,0)" xlink:href="#bw"/><use transform="matrix(0.0728395061728395,0,0,0.0728395061728395,120.62222222222222,0)" xlink:href="#aC"/><use transform="matrix(0.0728395061728395,0,0,0.0728395061728395,136.57407407407408,0)" xlink:href="#by"/></g><path fill="#333" d="M88-194c31-1 46 15 58 34l-1-101h50l1 261h-48c-2-10 0-23-3-31C134-8 116 4 84 4 32 4 16-41 15-95c0-56 19-97 73-99zm17 164c33 0 40-30 41-66 1-37-9-64-41-64s-38 30-39 65c0 43 13 65 39 65" id="bz"/><g id="o"><use transform="matrix(0.0728395061728395,0,0,0.0728395061728395,0,0)" xlink:href="#bx"/><use transform="matrix(0.0728395061728395,0,0,0.0728395061728395,14.5679012345679,0)" xlink:href="#by"/><use transform="matrix(0.0728395061728395,0,0,0.0728395061728395,30.51975308641975,0)" xlink:href="#bz"/></g><path fill="#333" d="M25 0v-261h50V0H25" id="bA"/><g id="p"><use transform="matrix(0.0728395061728395,0,0,0.0728395061728395,0,0)" xlink:href="#bu"/><use transform="matrix(0.0728395061728395,0,0,0.0728395061728395,18.86543209876543,0)" xlink:href="#aC"/><use transform="matrix(0.0728395061728395,0,0,0.0728395061728395,34.81728395061728,0)" xlink:href="#bA"/><use transform="matrix(0.0728395061728395,0,0,0.0728395061728395,42.10123456790124,0)" xlink:href="#aE"/></g><path fill="#333" d="M182-130c37 4 62 22 62 59C244 23 116-4 24 0v-248c84 5 203-23 205 63 0 31-19 50-47 55zM76-148c40-3 101 13 101-30 0-44-60-28-101-31v61zm0 110c48-3 116 14 116-37 0-48-69-32-116-35v72" id="bB"/><g id="q"><use transform="matrix(0.0728395061728395,0,0,0.0728395061728395,0,0)" xlink:href="#bB"/><use transform="matrix(0.0728395061728395,0,0,0.0728395061728395,18.86543209876543,0)" xlink:href="#bx"/><use transform="matrix(0.0728395061728395,0,0,0.0728395061728395,33.43333333333333,0)" xlink:href="#aF"/><use transform="matrix(0.0728395061728395,0,0,0.0728395061728395,48.00123456790123,0)" xlink:href="#aE"/><use transform="matrix(0.0728395061728395,0,0,0.0728395061728395,62.56913580246913,0)" xlink:href="#bz"/></g><path fill="#333" d="M199 0l-22-63H83L61 0H9l90-248h61L250 0h-51zm-33-102l-36-108c-10 38-24 72-36 108h72" id="bC"/><path fill="#333" d="M190-63c-7 42-38 67-86 67-59 0-84-38-90-98-12-110 154-137 174-36l-49 2c-2-19-15-32-35-32-30 0-35 28-38 64-6 74 65 87 74 30" id="bD"/><g id="r"><use transform="matrix(0.0728395061728395,0,0,0.0728395061728395,0,0)" xlink:href="#bC"/><use transform="matrix(0.0728395061728395,0,0,0.0728395061728395,18.86543209876543,0)" xlink:href="#bD"/><use transform="matrix(0.0728395061728395,0,0,0.0728395061728395,33.43333333333333,0)" xlink:href="#bD"/><use transform="matrix(0.0728395061728395,0,0,0.0728395061728395,48.00123456790123,0)" xlink:href="#aE"/><use transform="matrix(0.0728395061728395,0,0,0.0728395061728395,62.56913580246913,0)" xlink:href="#aF"/><use transform="matrix(0.0728395061728395,0,0,0.0728395061728395,77.13703703703703,0)" xlink:href="#aF"/></g><path fill="#333" d="M153-248C145-148 188 4 80 4 36 3 13-21 6-62l32-5c4 25 16 42 43 43 27 0 39-20 39-49v-147H72v-28h81" id="bE"/><path fill="#333" d="M84 4C-5 8 30-112 23-190h32v120c0 31 7 50 39 49 72-2 45-101 50-169h31l1 190h-30c-1-10 1-25-2-33-11 22-28 36-60 37" id="bF"/><path fill="#333" d="M24-231v-30h32v30H24zM24 0v-190h32V0H24" id="bG"/><path fill="#333" d="M117-194c89-4 53 116 60 194h-32v-121c0-31-8-49-39-48C34-167 62-67 57 0H25l-1-190h30c1 10-1 24 2 32 11-22 29-35 61-36" id="bH"/><g id="s"><use transform="matrix(0.04248971193415638,0,0,0.04248971193415638,0,0)" xlink:href="#bE"/><use transform="matrix(0.04248971193415638,0,0,0.04248971193415638,7.648148148148148,0)" xlink:href="#bF"/><use transform="matrix(0.04248971193415638,0,0,0.04248971193415638,16.14609053497942,0)" xlink:href="#bm"/><use transform="matrix(0.04248971193415638,0,0,0.04248971193415638,23.79423868312757,0)" xlink:href="#bn"/><use transform="matrix(0.04248971193415638,0,0,0.04248971193415638,28.04320987654321,0)" xlink:href="#bG"/><use transform="matrix(0.04248971193415638,0,0,0.04248971193415638,31.399897119341563,0)" xlink:href="#bH"/></g><path fill="#333" d="M127-220V0H93v-220H8v-28h204v28h-85" id="bI"/><path fill="#333" d="M141-36C126-15 110 5 73 4 37 3 15-17 15-53c-1-64 63-63 125-63 3-35-9-54-41-54-24 1-41 7-42 31l-33-3c5-37 33-52 76-52 45 0 72 20 72 64v82c-1 20 7 32 28 27v20c-31 9-61-2-59-35zM48-53c0 20 12 33 32 33 41-3 63-29 60-74-43 2-92-5-92 41" id="bJ"/><path fill="#333" d="M179-190L93 31C79 59 56 82 12 73V49c39 6 53-20 64-50L1-190h34L92-34l54-156h33" id="bK"/><path fill="#333" d="M24 0v-261h32V0H24" id="bL"/><path fill="#333" d="M114-163C36-179 61-72 57 0H25l-1-190h30c1 12-1 29 2 39 6-27 23-49 58-41v29" id="bM"/><g id="t"><use transform="matrix(0.04248971193415638,0,0,0.04248971193415638,0,0)" xlink:href="#bI"/><use transform="matrix(0.04248971193415638,0,0,0.04248971193415638,7.605658436213991,0)" xlink:href="#bJ"/><use transform="matrix(0.04248971193415638,0,0,0.04248971193415638,16.103600823045266,0)" xlink:href="#bK"/><use transform="matrix(0.04248971193415638,0,0,0.04248971193415638,23.751748971193415,0)" xlink:href="#bL"/><use transform="matrix(0.04248971193415638,0,0,0.04248971193415638,27.10843621399177,0)" xlink:href="#bl"/><use transform="matrix(0.04248971193415638,0,0,0.04248971193415638,35.60637860082304,0)" xlink:href="#bM"/></g><path fill="#333" d="M32 76v-337h29V76H32" id="bN"/><use transform="matrix(0.04248971193415638,0,0,0.04248971193415638,0,0)" xlink:href="#bN" id="u"/><path fill="#333" d="M30-248c118-7 216 8 213 122C240-48 200 0 122 0H30v-248zM63-27c89 8 146-16 146-99s-60-101-146-95v194" id="bO"/><path fill="#333" d="M100-194c63 0 86 42 84 106H49c0 40 14 67 53 68 26 1 43-12 49-29l28 8c-11 28-37 45-77 45C44 4 14-33 15-96c1-61 26-98 85-98zm52 81c6-60-76-77-97-28-3 7-6 17-6 28h103" id="bP"/><path fill="#333" d="M96-169c-40 0-48 33-48 73s9 75 48 75c24 0 41-14 43-38l32 2c-6 37-31 61-74 61-59 0-76-41-82-99-10-93 101-131 147-64 4 7 5 14 7 22l-32 3c-4-21-16-35-41-35" id="bQ"/><path fill="#333" d="M210-169c-67 3-38 105-44 169h-31v-121c0-29-5-50-35-48C34-165 62-65 56 0H25l-1-190h30c1 10-1 24 2 32 10-44 99-50 107 0 11-21 27-35 58-36 85-2 47 119 55 194h-31v-121c0-29-5-49-35-48" id="bR"/><path fill="#333" d="M115-194c53 0 69 39 70 98 0 66-23 100-70 100C84 3 66-7 56-30L54 0H23l1-261h32v101c10-23 28-34 59-34zm-8 174c40 0 45-34 45-75 0-40-5-75-45-74-42 0-51 32-51 76 0 43 10 73 51 73" id="bS"/><g id="v"><use transform="matrix(0.04248971193415638,0,0,0.04248971193415638,0,0)" xlink:href="#bO"/><use transform="matrix(0.04248971193415638,0,0,0.04248971193415638,11.004835390946502,0)" xlink:href="#bP"/><use transform="matrix(0.04248971193415638,0,0,0.04248971193415638,19.502777777777776,0)" xlink:href="#bQ"/><use transform="matrix(0.04248971193415638,0,0,0.04248971193415638,27.150925925925925,0)" xlink:href="#bP"/><use transform="matrix(0.04248971193415638,0,0,0.04248971193415638,35.6488683127572,0)" xlink:href="#bR"/><use transform="matrix(0.04248971193415638,0,0,0.04248971193415638,48.35329218106995,0)" xlink:href="#bS"/><use transform="matrix(0.04248971193415638,0,0,0.04248971193415638,56.851234567901244,0)" xlink:href="#bP"/><use transform="matrix(0.04248971193415638,0,0,0.04248971193415638,65.34917695473251,0)" xlink:href="#bM"/></g><path fill="#333" d="M134-131c28 9 52 24 51 62-1 50-34 73-85 73S17-19 16-69c0-36 21-54 49-61-75-25-45-126 34-121 46 3 78 18 79 63 0 33-17 51-44 57zm-34-11c31 1 46-15 46-44 0-28-17-43-47-42-29 0-46 13-45 42 1 28 16 44 46 44zm1 122c35 0 51-18 51-52 0-30-18-46-53-46-33 0-51 17-51 47 0 34 19 51 53 51" id="bT"/><path fill="#333" d="M68-38c1 34 0 65-14 84H32c9-13 17-26 17-46H33v-38h35" id="bU"/><g id="w"><use transform="matrix(0.04248971193415638,0,0,0.04248971193415638,0,0)" xlink:href="#bT"/><use transform="matrix(0.04248971193415638,0,0,0.04248971193415638,8.497942386831275,0)" xlink:href="#bU"/></g><path fill="#333" d="M101-251c82-7 93 87 43 132L82-64C71-53 59-42 53-27h129V0H18c2-99 128-94 128-182 0-28-16-43-45-43s-46 15-49 41l-32-3c6-41 34-60 81-64" id="bV"/><path fill="#333" d="M101-251c68 0 85 55 85 127S166 4 100 4C33 4 14-52 14-124c0-73 17-127 87-127zm-1 229c47 0 54-49 54-102s-4-102-53-102c-51 0-55 48-55 102 0 53 5 102 54 102" id="bW"/><g id="x"><use transform="matrix(0.04248971193415638,0,0,0.04248971193415638,0,0)" xlink:href="#bV"/><use transform="matrix(0.04248971193415638,0,0,0.04248971193415638,8.497942386831275,0)" xlink:href="#bW"/><use transform="matrix(0.04248971193415638,0,0,0.04248971193415638,16.99588477366255,0)" xlink:href="#bV"/><use transform="matrix(0.04248971193415638,0,0,0.04248971193415638,25.493827160493822,0)" xlink:href="#bW"/></g><path fill="#333" d="M66-151c12-25 30-51 66-40l-6 26C45-176 58-65 38 0H6l36-190h30" id="bX"/><g id="y"><use transform="matrix(0.05,0,0,0.05,0,0)" xlink:href="#bX"/><use transform="matrix(0.05,0,0,0.05,5.95,0)" xlink:href="#ba"/><use transform="matrix(0.05,0,0,0.05,15.949999999999998,0)" xlink:href="#bf"/><use transform="matrix(0.05,0,0,0.05,25.950000000000003,0)" xlink:href="#bg"/><use transform="matrix(0.05,0,0,0.05,29.899999999999995,0)" xlink:href="#aY"/><use transform="matrix(0.05,0,0,0.05,38.9,0)" xlink:href="#bc"/><use transform="matrix(0.05,0,0,0.05,43.9,0)" xlink:href="#ba"/><use transform="matrix(0.05,0,0,0.05,53.900000000000006,0)" xlink:href="#bX"/></g><path fill="#333" d="M11 0l48-248h184l-5 28H87l-15 79h140l-5 27H67L50-27h158l-5 27H11" id="bY"/><path fill="#333" d="M248-111c6-24 9-61-24-58-72 9-57 108-77 169h-31l26-142c3-37-50-30-64-10C52-115 50-51 37 0H6l36-190h30c-1 10-6 24-4 32 13-43 101-52 105 5 13-22 29-41 61-41 90 0 28 129 23 194h-31" id="bZ"/><path fill="#333" d="M165-48c-4 18 1 34 23 27l-3 20c-29 8-62 0-52-35h-2C116-14 99 4 63 4 30 4 8-16 8-49c0-68 71-67 138-67 10-26 0-56-31-54-26 1-42 9-47 31l-32-5c8-67 160-71 144 15-5 28-9 54-15 81zM42-50c3 52 80 24 89-6 7-12 7-24 11-38-47 1-103-4-100 44" id="ca"/><g id="z"><use transform="matrix(0.05,0,0,0.05,0,0)" xlink:href="#bY"/><use transform="matrix(0.05,0,0,0.05,12,0)" xlink:href="#bZ"/><use transform="matrix(0.05,0,0,0.05,26.950000000000003,0)" xlink:href="#ca"/><use transform="matrix(0.05,0,0,0.05,36.95,0)" xlink:href="#bg"/><use transform="matrix(0.05,0,0,0.05,40.900000000000006,0)" xlink:href="#be"/></g><path fill="#333" d="M89 0H52L20-190h33L74-25l89-165h34" id="cb"/><path fill="#333" d="M76-167L44 0H12l33-167H18l4-23h27c3-47 25-81 82-69l-4 24c-35-8-44 15-46 45h37l-5 23H76" id="cc"/><path fill="#333" d="M44-68c0 29 11 47 38 47 30 0 42-19 51-41l28 9C148-21 126 4 82 4 31 4 10-29 12-85c3-77 74-140 146-93 12 8 15 23 18 40l-31 5c-1-22-13-36-36-36-52 0-65 49-65 101" id="cd"/><g id="A"><use transform="matrix(0.05,0,0,0.05,0,0)" xlink:href="#cb"/><use transform="matrix(0.05,0,0,0.05,9,0)" xlink:href="#ba"/><use transform="matrix(0.05,0,0,0.05,19,0)" xlink:href="#bX"/><use transform="matrix(0.05,0,0,0.05,24.95,0)" xlink:href="#bg"/><use transform="matrix(0.05,0,0,0.05,28.899999999999995,0)" xlink:href="#cc"/><use transform="matrix(0.05,0,0,0.05,33.9,0)" xlink:href="#bg"/><use transform="matrix(0.05,0,0,0.05,37.85,0)" xlink:href="#cd"/><use transform="matrix(0.05,0,0,0.05,46.85,0)" xlink:href="#ca"/><use transform="matrix(0.05,0,0,0.05,56.85,0)" xlink:href="#bc"/><use transform="matrix(0.05,0,0,0.05,61.85,0)" xlink:href="#bg"/><use transform="matrix(0.05,0,0,0.05,65.8,0)" xlink:href="#bd"/><use transform="matrix(0.05,0,0,0.05,75.8,0)" xlink:href="#bh"/></g><path fill="#333" d="M30 0v-248h187v28H63v79h144v27H63v87h162V0H30" id="ce"/><path fill="#333" d="M0 4l72-265h28L28 4H0" id="cf"/><path fill="#333" d="M185-189c-5-48-123-54-124 2 14 75 158 14 163 119 3 78-121 87-175 55-17-10-28-26-33-46l33-7c5 56 141 63 141-1 0-78-155-14-162-118-5-82 145-84 179-34 5 7 8 16 11 25" id="cg"/><path fill="#333" d="M106-169C34-169 62-67 57 0H25v-261h32l-1 103c12-21 28-36 61-36 89 0 53 116 60 194h-32v-121c2-32-8-49-39-48" id="ch"/><g id="B"><use transform="matrix(0.05,0,0,0.05,0,0)" xlink:href="#ce"/><use transform="matrix(0.05,0,0,0.05,12,0)" xlink:href="#bj"/><use transform="matrix(0.05,0,0,0.05,22,0)" xlink:href="#bG"/><use transform="matrix(0.05,0,0,0.05,25.950000000000003,0)" xlink:href="#bn"/><use transform="matrix(0.05,0,0,0.05,30.950000000000003,0)" xlink:href="#cf"/><use transform="matrix(0.05,0,0,0.05,35.95,0)" xlink:href="#cg"/><use transform="matrix(0.05,0,0,0.05,47.95,0)" xlink:href="#ch"/><use transform="matrix(0.05,0,0,0.05,57.95,0)" xlink:href="#bJ"/><use transform="matrix(0.05,0,0,0.05,67.95,0)" xlink:href="#bM"/><use transform="matrix(0.05,0,0,0.05,73.9,0)" xlink:href="#bP"/></g><path fill="#fff" d="M187 0l-14-72H61L19 0h-37l149-248h38L221 0h-34zm-19-99l-22-123L76-99h92" id="ci"/><path fill="#fff" d="M67 3c-93-2-31-127-26-193h32L48-50c-3 39 53 32 70 12 30-34 30-101 43-152h32L157 0h-30c1-10 6-24 4-33-14 20-29 37-64 36" id="cj"/><path fill="#fff" d="M67-158c15-20 31-36 64-36 94 0 33 127 27 194h-32l25-140c3-38-53-32-70-12C52-117 51-51 37 0H6l51-261h31" id="ck"/><path fill="#fff" d="M67-158c22-48 132-52 116 29L158 0h-32l25-140c3-38-53-32-70-12C52-117 51-52 38 0H6l36-190h30" id="cl"/><path fill="#fff" d="M44-68c0 29 11 47 38 47 30 0 42-19 51-41l28 9C148-21 126 4 82 4 31 4 10-29 12-85c3-77 74-140 146-93 12 8 15 23 18 40l-31 5c-1-22-13-36-36-36-52 0-65 49-65 101" id="cm"/><g id="C"><use transform="matrix(0.05,0,0,0.05,0,0)" xlink:href="#ci"/><use transform="matrix(0.05,0,0,0.05,12,0)" xlink:href="#cj"/><use transform="matrix(0.05,0,0,0.05,22,0)" xlink:href="#aO"/><use transform="matrix(0.05,0,0,0.05,27,0)" xlink:href="#ck"/><use transform="matrix(0.05,0,0,0.05,37,0)" xlink:href="#aV"/><use transform="matrix(0.05,0,0,0.05,47,0)" xlink:href="#cl"/><use transform="matrix(0.05,0,0,0.05,57,0)" xlink:href="#aO"/><use transform="matrix(0.05,0,0,0.05,62,0)" xlink:href="#aS"/><use transform="matrix(0.05,0,0,0.05,65.95,0)" xlink:href="#cm"/><use transform="matrix(0.05,0,0,0.05,74.95,0)" xlink:href="#aP"/><use transform="matrix(0.05,0,0,0.05,84.95,0)" xlink:href="#aO"/><use transform="matrix(0.05,0,0,0.05,89.95,0)" xlink:href="#aV"/><use transform="matrix(0.05,0,0,0.05,99.95,0)" xlink:href="#bq"/></g><path fill="#fff" d="M222 0l43-216c-8 16-17 34-26 49L143 0h-22L81-216 41 0H11l48-248h42l38 208 116-208h45L252 0h-30" id="cn"/><path fill="#fff" d="M30-147c31-64 166-65 159 27C183-49 158 1 86 4 9 8 1-88 30-147zM88-20c53 0 68-48 68-100 0-31-11-51-44-50-52 1-68 46-68 97 0 32 13 53 44 53" id="co"/><g id="D"><use transform="matrix(0.05,0,0,0.05,0,0)" xlink:href="#cn"/><use transform="matrix(0.05,0,0,0.05,14.950000000000001,0)" xlink:href="#co"/><use transform="matrix(0.05,0,0,0.05,24.950000000000003,0)" xlink:href="#bq"/><use transform="matrix(0.05,0,0,0.05,34.95,0)" xlink:href="#aV"/><use transform="matrix(0.05,0,0,0.05,44.95,0)" xlink:href="#aQ"/><use transform="matrix(0.05,0,0,0.05,50.900000000000006,0)" xlink:href="#aP"/><use transform="matrix(0.05,0,0,0.05,60.900000000000006,0)" xlink:href="#aO"/><use transform="matrix(0.05,0,0,0.05,65.9,0)" xlink:href="#co"/><use transform="matrix(0.05,0,0,0.05,75.9,0)" xlink:href="#aQ"/></g><path fill="#333" d="M212-179c-10-28-35-45-73-45-59 0-87 40-87 99 0 60 29 101 89 101 43 0 62-24 78-52l27 14C228-24 195 4 139 4 59 4 22-46 18-125c-6-104 99-153 187-111 19 9 31 26 39 46" id="cp"/><g id="E"><use transform="matrix(0.05,0,0,0.05,0,0)" xlink:href="#cp"/><use transform="matrix(0.05,0,0,0.05,12.950000000000001,0)" xlink:href="#bl"/><use transform="matrix(0.05,0,0,0.05,22.950000000000003,0)" xlink:href="#bR"/><use transform="matrix(0.05,0,0,0.05,37.900000000000006,0)" xlink:href="#bR"/><use transform="matrix(0.05,0,0,0.05,52.85,0)" xlink:href="#bP"/><use transform="matrix(0.05,0,0,0.05,62.85,0)" xlink:href="#bH"/><use transform="matrix(0.05,0,0,0.05,72.85000000000001,0)" xlink:href="#bn"/></g><path fill="#fff" d="M248-111c6-24 9-61-24-58-72 9-57 108-77 169h-31l26-142c3-37-50-30-64-10C52-115 50-51 37 0H6l36-190h30c-1 10-6 24-4 32 13-43 101-52 105 5 13-22 29-41 61-41 90 0 28 129 23 194h-31" id="cq"/><g id="F"><use transform="matrix(0.05,0,0,0.05,0,0)" xlink:href="#ci"/><use transform="matrix(0.05,0,0,0.05,12,0)" xlink:href="#bq"/><use transform="matrix(0.05,0,0,0.05,22,0)" xlink:href="#cq"/><use transform="matrix(0.05,0,0,0.05,36.95,0)" xlink:href="#aS"/><use transform="matrix(0.05,0,0,0.05,40.900000000000006,0)" xlink:href="#cl"/></g><path fill="#333" d="M240 0l2-218c-23 76-54 145-80 218h-23L58-218 59 0H30v-248h44l77 211c21-75 51-140 76-211h43V0h-30" id="cr"/><path fill="#333" d="M177-190C167-65 218 103 67 71c-23-6-38-20-44-43l32-5c15 47 100 32 89-28v-30C133-14 115 1 83 1 29 1 15-40 15-95c0-56 16-97 71-98 29-1 48 16 59 35 1-10 0-23 2-32h30zM94-22c36 0 50-32 50-73 0-42-14-75-50-75-39 0-46 34-46 75s6 73 46 73" id="cs"/><g id="G"><use transform="matrix(0.05,0,0,0.05,0,0)" xlink:href="#cr"/><use transform="matrix(0.05,0,0,0.05,14.950000000000001,0)" xlink:href="#bJ"/><use transform="matrix(0.05,0,0,0.05,24.950000000000003,0)" xlink:href="#bH"/><use transform="matrix(0.05,0,0,0.05,34.95,0)" xlink:href="#bJ"/><use transform="matrix(0.05,0,0,0.05,44.95,0)" xlink:href="#cs"/><use transform="matrix(0.05,0,0,0.05,54.95,0)" xlink:href="#bP"/></g><path fill="#333" d="M232-93c-1 65-40 97-104 97C67 4 28-28 28-90v-158h33c8 89-33 224 67 224 102 0 64-133 71-224h33v155" id="ct"/><g id="H"><use transform="matrix(0.05,0,0,0.05,0,0)" xlink:href="#ct"/><use transform="matrix(0.05,0,0,0.05,12.950000000000001,0)" xlink:href="#bm"/><use transform="matrix(0.05,0,0,0.05,21.950000000000003,0)" xlink:href="#bP"/><use transform="matrix(0.05,0,0,0.05,31.950000000000003,0)" xlink:href="#bM"/><use transform="matrix(0.05,0,0,0.05,37.900000000000006,0)" xlink:href="#bm"/></g><path d="M109-170H84l-4-78h32zm-65 0H19l-4-78h33" id="cu"/><path d="M233-177c-1 41-23 64-60 70L243 0h-38l-65-103H63V0H30v-248c88 3 205-21 203 71zM63-129c60-2 137 13 137-47 0-61-80-42-137-45v92" id="cv"/><path d="M100-194c63 0 86 42 84 106H49c0 40 14 67 53 68 26 1 43-12 49-29l28 8c-11 28-37 45-77 45C44 4 14-33 15-96c1-61 26-98 85-98zm52 81c6-60-76-77-97-28-3 7-6 17-6 28h103" id="cw"/><path d="M177-190C167-65 218 103 67 71c-23-6-38-20-44-43l32-5c15 47 100 32 89-28v-30C133-14 115 1 83 1 29 1 15-40 15-95c0-56 16-97 71-98 29-1 48 16 59 35 1-10 0-23 2-32h30zM94-22c36 0 50-32 50-73 0-42-14-75-50-75-39 0-46 34-46 75s6 73 46 73" id="cx"/><path d="M24-231v-30h32v30H24zM24 0v-190h32V0H24" id="cy"/><path d="M135-143c-3-34-86-38-87 0 15 53 115 12 119 90S17 21 10-45l28-5c4 36 97 45 98 0-10-56-113-15-118-90-4-57 82-63 122-42 12 7 21 19 24 35" id="cz"/><path d="M59-47c-2 24 18 29 38 22v24C64 9 27 4 27-40v-127H5v-23h24l9-43h21v43h35v23H59v120" id="cA"/><path d="M114-163C36-179 61-72 57 0H25l-1-190h30c1 12-1 29 2 39 6-27 23-49 58-41v29" id="cB"/><path d="M85-194c31 0 48 13 60 33l-1-100h32l1 261h-30c-2-10 0-23-3-31C134-8 116 4 85 4 32 4 16-35 15-94c0-66 23-100 70-100zm9 24c-40 0-46 34-46 75 0 40 6 74 45 74 42 0 51-32 51-76 0-42-9-74-50-73" id="cC"/><g id="I"><use transform="matrix(0.049382716049382706,0,0,0.049382716049382706,0,0)" xlink:href="#cu"/><use transform="matrix(0.049382716049382706,0,0,0.049382716049382706,6.2716049382716035,0)" xlink:href="#cv"/><use transform="matrix(0.049382716049382706,0,0,0.049382716049382706,19.061728395061724,0)" xlink:href="#cw"/><use transform="matrix(0.049382716049382706,0,0,0.049382716049382706,28.938271604938265,0)" xlink:href="#cx"/><use transform="matrix(0.049382716049382706,0,0,0.049382716049382706,38.81481481481481,0)" xlink:href="#cy"/><use transform="matrix(0.049382716049382706,0,0,0.049382716049382706,42.716049382716044,0)" xlink:href="#cz"/><use transform="matrix(0.049382716049382706,0,0,0.049382716049382706,51.60493827160493,0)" xlink:href="#cA"/><use transform="matrix(0.049382716049382706,0,0,0.049382716049382706,56.5432098765432,0)" xlink:href="#cw"/><use transform="matrix(0.049382716049382706,0,0,0.049382716049382706,66.41975308641975,0)" xlink:href="#cB"/><use transform="matrix(0.049382716049382706,0,0,0.049382716049382706,72.29629629629629,0)" xlink:href="#cw"/><use transform="matrix(0.049382716049382706,0,0,0.049382716049382706,82.17283950617283,0)" xlink:href="#cC"/><use transform="matrix(0.049382716049382706,0,0,0.049382716049382706,92.04938271604938,0)" xlink:href="#cu"/></g><g id="J"><use transform="matrix(0.049382716049382706,0,0,0.049382716049382706,0,0)" xlink:href="#cy"/><use transform="matrix(0.049382716049382706,0,0,0.049382716049382706,3.9012345679012337,0)" xlink:href="#cz"/></g><path d="M141-36C126-15 110 5 73 4 37 3 15-17 15-53c-1-64 63-63 125-63 3-35-9-54-41-54-24 1-41 7-42 31l-33-3c5-37 33-52 76-52 45 0 72 20 72 64v82c-1 20 7 32 28 27v20c-31 9-61-2-59-35zM48-53c0 20 12 33 32 33 41-3 63-29 60-74-43 2-92-5-92 41" id="cD"/><use transform="matrix(0.049382716049382706,0,0,0.049382716049382706,0,0)" xlink:href="#cD" id="K"/><path d="M232-93c-1 65-40 97-104 97C67 4 28-28 28-90v-158h33c8 89-33 224 67 224 102 0 64-133 71-224h33v155" id="cE"/><g id="L"><use transform="matrix(0.049382716049382706,0,0,0.049382716049382706,0,0)" xlink:href="#cE"/><use transform="matrix(0.049382716049382706,0,0,0.049382716049382706,12.790123456790122,0)" xlink:href="#cz"/><use transform="matrix(0.049382716049382706,0,0,0.049382716049382706,21.67901234567901,0)" xlink:href="#cw"/><use transform="matrix(0.049382716049382706,0,0,0.049382716049382706,31.55555555555555,0)" xlink:href="#cB"/></g><path d="M106-169C34-169 62-67 57 0H25v-261h32l-1 103c12-21 28-36 61-36 89 0 53 116 60 194h-32v-121c2-32-8-49-39-48" id="cF"/><g id="M"><use transform="matrix(0.049382716049382706,0,0,0.049382716049382706,0,0)" xlink:href="#cA"/><use transform="matrix(0.049382716049382706,0,0,0.049382716049382706,4.93827160493827,0)" xlink:href="#cF"/><use transform="matrix(0.049382716049382706,0,0,0.049382716049382706,14.814814814814811,0)" xlink:href="#cD"/><use transform="matrix(0.049382716049382706,0,0,0.049382716049382706,24.691358024691354,0)" xlink:href="#cA"/></g><g id="N"><use transform="matrix(0.049382716049382706,0,0,0.049382716049382706,0,0)" xlink:href="#cF"/><use transform="matrix(0.049382716049382706,0,0,0.049382716049382706,9.87654320987654,0)" xlink:href="#cD"/><use transform="matrix(0.049382716049382706,0,0,0.049382716049382706,19.75308641975308,0)" xlink:href="#cz"/></g><path d="M24 0v-261h32V0H24" id="cG"/><path d="M100-194c62-1 85 37 85 99 1 63-27 99-86 99S16-35 15-95c0-66 28-99 85-99zM99-20c44 1 53-31 53-75 0-43-8-75-51-75s-53 32-53 75 10 74 51 75" id="cH"/><path d="M117-194c89-4 53 116 60 194h-32v-121c0-31-8-49-39-48C34-167 62-67 57 0H25l-1-190h30c1 10-1 24 2 32 11-22 29-35 61-36" id="cI"/><g id="O"><use transform="matrix(0.049382716049382706,0,0,0.049382716049382706,0,0)" xlink:href="#cG"/><use transform="matrix(0.049382716049382706,0,0,0.049382716049382706,3.9012345679012337,0)" xlink:href="#cH"/><use transform="matrix(0.049382716049382706,0,0,0.049382716049382706,13.777777777777775,0)" xlink:href="#cx"/><use transform="matrix(0.049382716049382706,0,0,0.049382716049382706,23.654320987654316,0)" xlink:href="#cy"/><use transform="matrix(0.049382716049382706,0,0,0.049382716049382706,27.55555555555555,0)" xlink:href="#cI"/></g><path d="M96-169c-40 0-48 33-48 73s9 75 48 75c24 0 41-14 43-38l32 2c-6 37-31 61-74 61-59 0-76-41-82-99-10-93 101-131 147-64 4 7 5 14 7 22l-32 3c-4-21-16-35-41-35" id="cJ"/><path d="M68-38c1 34 0 65-14 84H32c9-13 17-26 17-46H33v-38h35" id="cK"/><g id="P"><use transform="matrix(0.049382716049382706,0,0,0.049382716049382706,0,0)" xlink:href="#cJ"/><use transform="matrix(0.049382716049382706,0,0,0.049382716049382706,8.888888888888888,0)" xlink:href="#cB"/><use transform="matrix(0.049382716049382706,0,0,0.049382716049382706,14.765432098765428,0)" xlink:href="#cw"/><use transform="matrix(0.049382716049382706,0,0,0.049382716049382706,24.64197530864197,0)" xlink:href="#cC"/><use transform="matrix(0.049382716049382706,0,0,0.049382716049382706,34.51851851851851,0)" xlink:href="#cw"/><use transform="matrix(0.049382716049382706,0,0,0.049382716049382706,44.39506172839505,0)" xlink:href="#cI"/><use transform="matrix(0.049382716049382706,0,0,0.049382716049382706,54.271604938271594,0)" xlink:href="#cA"/><use transform="matrix(0.049382716049382706,0,0,0.049382716049382706,59.209876543209866,0)" xlink:href="#cy"/><use transform="matrix(0.049382716049382706,0,0,0.049382716049382706,63.1111111111111,0)" xlink:href="#cD"/><use transform="matrix(0.049382716049382706,0,0,0.049382716049382706,72.98765432098764,0)" xlink:href="#cG"/><use transform="matrix(0.049382716049382706,0,0,0.049382716049382706,76.88888888888887,0)" xlink:href="#cz"/><use transform="matrix(0.049382716049382706,0,0,0.049382716049382706,85.77777777777776,0)" xlink:href="#cK"/></g><path d="M115-194c53 0 69 39 70 98 0 66-23 100-70 100C84 3 66-7 56-30L54 0H23l1-261h32v101c10-23 28-34 59-34zm-8 174c40 0 45-34 45-75 0-40-5-75-45-74-42 0-51 32-51 76 0 43 10 73 51 73" id="cL"/><path d="M84 4C-5 8 30-112 23-190h32v120c0 31 7 50 39 49 72-2 45-101 50-169h31l1 190h-30c-1-10 1-25-2-33-11 22-28 36-60 37" id="cM"/><g id="Q"><use transform="matrix(0.049382716049382706,0,0,0.049382716049382706,0,0)" xlink:href="#cL"/><use transform="matrix(0.049382716049382706,0,0,0.049382716049382706,9.87654320987654,0)" xlink:href="#cM"/><use transform="matrix(0.049382716049382706,0,0,0.049382716049382706,19.75308641975308,0)" xlink:href="#cA"/></g><g id="R"><use transform="matrix(0.049382716049382706,0,0,0.049382716049382706,0,0)" xlink:href="#cF"/><use transform="matrix(0.049382716049382706,0,0,0.049382716049382706,9.87654320987654,0)" xlink:href="#cD"/><use transform="matrix(0.049382716049382706,0,0,0.049382716049382706,19.75308641975308,0)" xlink:href="#cz"/></g><g id="S"><use transform="matrix(0.049382716049382706,0,0,0.049382716049382706,0,0)" xlink:href="#cI"/><use transform="matrix(0.049382716049382706,0,0,0.049382716049382706,9.87654320987654,0)" xlink:href="#cH"/><use transform="matrix(0.049382716049382706,0,0,0.049382716049382706,19.75308641975308,0)" xlink:href="#cA"/></g><g id="T"><use transform="matrix(0.049382716049382706,0,0,0.049382716049382706,0,0)" xlink:href="#cL"/><use transform="matrix(0.049382716049382706,0,0,0.049382716049382706,9.87654320987654,0)" xlink:href="#cw"/><use transform="matrix(0.049382716049382706,0,0,0.049382716049382706,19.75308641975308,0)" xlink:href="#cw"/><use transform="matrix(0.049382716049382706,0,0,0.049382716049382706,29.629629629629623,0)" xlink:href="#cI"/></g><path d="M33 0v-38h34V0H33" id="cN"/><g id="U"><use transform="matrix(0.049382716049382706,0,0,0.049382716049382706,0,0)" xlink:href="#cD"/><use transform="matrix(0.049382716049382706,0,0,0.049382716049382706,9.87654320987654,0)" xlink:href="#cM"/><use transform="matrix(0.049382716049382706,0,0,0.049382716049382706,19.75308641975308,0)" xlink:href="#cA"/><use transform="matrix(0.049382716049382706,0,0,0.049382716049382706,24.691358024691354,0)" xlink:href="#cF"/><use transform="matrix(0.049382716049382706,0,0,0.049382716049382706,34.5679012345679,0)" xlink:href="#cw"/><use transform="matrix(0.049382716049382706,0,0,0.049382716049382706,44.44444444444444,0)" xlink:href="#cI"/><use transform="matrix(0.049382716049382706,0,0,0.049382716049382706,54.32098765432099,0)" xlink:href="#cA"/><use transform="matrix(0.049382716049382706,0,0,0.049382716049382706,59.25925925925926,0)" xlink:href="#cy"/><use transform="matrix(0.049382716049382706,0,0,0.049382716049382706,63.160493827160494,0)" xlink:href="#cJ"/><use transform="matrix(0.049382716049382706,0,0,0.049382716049382706,72.04938271604938,0)" xlink:href="#cD"/><use transform="matrix(0.049382716049382706,0,0,0.049382716049382706,81.92592592592592,0)" xlink:href="#cA"/><use transform="matrix(0.049382716049382706,0,0,0.049382716049382706,86.86419753086419,0)" xlink:href="#cw"/><use transform="matrix(0.049382716049382706,0,0,0.049382716049382706,96.74074074074073,0)" xlink:href="#cC"/><use transform="matrix(0.049382716049382706,0,0,0.049382716049382706,106.61728395061729,0)" xlink:href="#cN"/></g><path d="M205 0l-28-72H64L36 0H1l101-248h38L239 0h-34zm-38-99l-47-123c-12 45-31 82-46 123h93" id="cO"/><g id="V"><use transform="matrix(0.049382716049382706,0,0,0.049382716049382706,0,0)" xlink:href="#cu"/><use transform="matrix(0.049382716049382706,0,0,0.049382716049382706,6.2716049382716035,0)" xlink:href="#cO"/><use transform="matrix(0.049382716049382706,0,0,0.049382716049382706,18.123456790123452,0)" xlink:href="#cM"/><use transform="matrix(0.049382716049382706,0,0,0.049382716049382706,27.999999999999993,0)" xlink:href="#cA"/><use transform="matrix(0.049382716049382706,0,0,0.049382716049382706,32.938271604938265,0)" xlink:href="#cF"/><use transform="matrix(0.049382716049382706,0,0,0.049382716049382706,42.81481481481481,0)" xlink:href="#cw"/><use transform="matrix(0.049382716049382706,0,0,0.049382716049382706,52.69135802469136,0)" xlink:href="#cI"/><use transform="matrix(0.049382716049382706,0,0,0.049382716049382706,62.5679012345679,0)" xlink:href="#cA"/><use transform="matrix(0.049382716049382706,0,0,0.049382716049382706,67.50617283950616,0)" xlink:href="#cy"/><use transform="matrix(0.049382716049382706,0,0,0.049382716049382706,71.40740740740739,0)" xlink:href="#cJ"/><use transform="matrix(0.049382716049382706,0,0,0.049382716049382706,80.29629629629628,0)" xlink:href="#cD"/><use transform="matrix(0.049382716049382706,0,0,0.049382716049382706,90.17283950617282,0)" xlink:href="#cA"/><use transform="matrix(0.049382716049382706,0,0,0.049382716049382706,95.11111111111109,0)" xlink:href="#cw"/><use transform="matrix(0.049382716049382706,0,0,0.049382716049382706,104.98765432098763,0)" xlink:href="#cC"/><use transform="matrix(0.049382716049382706,0,0,0.049382716049382706,114.86419753086417,0)" xlink:href="#cu"/></g><g id="W"><use transform="matrix(0.049382716049382706,0,0,0.049382716049382706,0,0)" xlink:href="#cD"/><use transform="matrix(0.049382716049382706,0,0,0.049382716049382706,9.87654320987654,0)" xlink:href="#cB"/><use transform="matrix(0.049382716049382706,0,0,0.049382716049382706,15.75308641975308,0)" xlink:href="#cw"/></g><g id="X"><use transform="matrix(0.049382716049382706,0,0,0.049382716049382706,0,0)" xlink:href="#cB"/><use transform="matrix(0.049382716049382706,0,0,0.049382716049382706,5.876543209876542,0)" xlink:href="#cw"/><use transform="matrix(0.049382716049382706,0,0,0.049382716049382706,15.75308641975308,0)" xlink:href="#cx"/><use transform="matrix(0.049382716049382706,0,0,0.049382716049382706,25.629629629629626,0)" xlink:href="#cy"/><use transform="matrix(0.049382716049382706,0,0,0.049382716049382706,29.530864197530857,0)" xlink:href="#cz"/><use transform="matrix(0.049382716049382706,0,0,0.049382716049382706,38.419753086419746,0)" xlink:href="#cA"/><use transform="matrix(0.049382716049382706,0,0,0.049382716049382706,43.35802469135802,0)" xlink:href="#cw"/><use transform="matrix(0.049382716049382706,0,0,0.049382716049382706,53.234567901234556,0)" xlink:href="#cB"/><use transform="matrix(0.049382716049382706,0,0,0.049382716049382706,59.1111111111111,0)" xlink:href="#cw"/><use transform="matrix(0.049382716049382706,0,0,0.049382716049382706,68.98765432098764,0)" xlink:href="#cC"/></g><g id="Y"><use transform="matrix(0.049382716049382706,0,0,0.049382716049382706,0,0)" xlink:href="#cM"/><use transform="matrix(0.049382716049382706,0,0,0.049382716049382706,9.87654320987654,0)" xlink:href="#cz"/><use transform="matrix(0.049382716049382706,0,0,0.049382716049382706,18.76543209876543,0)" xlink:href="#cw"/><use transform="matrix(0.049382716049382706,0,0,0.049382716049382706,28.64197530864197,0)" xlink:href="#cB"/><use transform="matrix(0.049382716049382706,0,0,0.049382716049382706,34.51851851851851,0)" xlink:href="#cz"/></g><path d="M108 0H70L1-190h34L89-25l56-165h34" id="cP"/><g id="Z"><use transform="matrix(0.049382716049382706,0,0,0.049382716049382706,0,0)" xlink:href="#cF"/><use transform="matrix(0.049382716049382706,0,0,0.049382716049382706,9.87654320987654,0)" xlink:href="#cD"/><use transform="matrix(0.049382716049382706,0,0,0.049382716049382706,19.75308641975308,0)" xlink:href="#cP"/><use transform="matrix(0.049382716049382706,0,0,0.049382716049382706,28.64197530864197,0)" xlink:href="#cw"/></g><g id="aa"><use transform="matrix(0.049382716049382706,0,0,0.049382716049382706,0,0)" xlink:href="#cF"/><use transform="matrix(0.049382716049382706,0,0,0.049382716049382706,9.87654320987654,0)" xlink:href="#cD"/><use transform="matrix(0.049382716049382706,0,0,0.049382716049382706,19.75308641975308,0)" xlink:href="#cC"/></g><g id="ab"><use transform="matrix(0.049382716049382706,0,0,0.049382716049382706,0,0)" xlink:href="#cA"/><use transform="matrix(0.049382716049382706,0,0,0.049382716049382706,4.93827160493827,0)" xlink:href="#cF"/><use transform="matrix(0.049382716049382706,0,0,0.049382716049382706,14.814814814814811,0)" xlink:href="#cw"/><use transform="matrix(0.049382716049382706,0,0,0.049382716049382706,24.691358024691354,0)" xlink:href="#cy"/><use transform="matrix(0.049382716049382706,0,0,0.049382716049382706,28.592592592592588,0)" xlink:href="#cB"/></g><g id="ac"><use transform="matrix(0.049382716049382706,0,0,0.049382716049382706,0,0)" xlink:href="#cD"/><use transform="matrix(0.049382716049382706,0,0,0.049382716049382706,9.87654320987654,0)" xlink:href="#cJ"/><use transform="matrix(0.049382716049382706,0,0,0.049382716049382706,18.76543209876543,0)" xlink:href="#cJ"/><use transform="matrix(0.049382716049382706,0,0,0.049382716049382706,27.654320987654316,0)" xlink:href="#cH"/><use transform="matrix(0.049382716049382706,0,0,0.049382716049382706,37.53086419753086,0)" xlink:href="#cM"/><use transform="matrix(0.049382716049382706,0,0,0.049382716049382706,47.407407407407405,0)" xlink:href="#cI"/><use transform="matrix(0.049382716049382706,0,0,0.049382716049382706,57.28395061728395,0)" xlink:href="#cA"/><use transform="matrix(0.049382716049382706,0,0,0.049382716049382706,62.22222222222222,0)" xlink:href="#cz"/></g><g id="ad"><use transform="matrix(0.049382716049382706,0,0,0.049382716049382706,0,0)" xlink:href="#cD"/><use transform="matrix(0.049382716049382706,0,0,0.049382716049382706,9.87654320987654,0)" xlink:href="#cM"/><use transform="matrix(0.049382716049382706,0,0,0.049382716049382706,19.75308641975308,0)" xlink:href="#cA"/><use transform="matrix(0.049382716049382706,0,0,0.049382716049382706,24.691358024691354,0)" xlink:href="#cF"/><use transform="matrix(0.049382716049382706,0,0,0.049382716049382706,34.5679012345679,0)" xlink:href="#cw"/><use transform="matrix(0.049382716049382706,0,0,0.049382716049382706,44.44444444444444,0)" xlink:href="#cI"/><use transform="matrix(0.049382716049382706,0,0,0.049382716049382706,54.32098765432099,0)" xlink:href="#cA"/><use transform="matrix(0.049382716049382706,0,0,0.049382716049382706,59.25925925925926,0)" xlink:href="#cy"/><use transform="matrix(0.049382716049382706,0,0,0.049382716049382706,63.160493827160494,0)" xlink:href="#cJ"/><use transform="matrix(0.049382716049382706,0,0,0.049382716049382706,72.04938271604938,0)" xlink:href="#cD"/><use transform="matrix(0.049382716049382706,0,0,0.049382716049382706,81.92592592592592,0)" xlink:href="#cA"/><use transform="matrix(0.049382716049382706,0,0,0.049382716049382706,86.86419753086419,0)" xlink:href="#cw"/><use transform="matrix(0.049382716049382706,0,0,0.049382716049382706,96.74074074074073,0)" xlink:href="#cC"/></g><g id="ae"><use transform="matrix(0.049382716049382706,0,0,0.049382716049382706,0,0)" xlink:href="#cP"/><use transform="matrix(0.049382716049382706,0,0,0.049382716049382706,8.888888888888888,0)" xlink:href="#cy"/><use transform="matrix(0.049382716049382706,0,0,0.049382716049382706,12.790123456790122,0)" xlink:href="#cD"/></g><path d="M179-190L93 31C79 59 56 82 12 73V49c39 6 53-20 64-50L1-190h34L92-34l54-156h33" id="cQ"/><g id="af"><use transform="matrix(0.049382716049382706,0,0,0.049382716049382706,0,0)" xlink:href="#cQ"/><use transform="matrix(0.049382716049382706,0,0,0.049382716049382706,8.888888888888888,0)" xlink:href="#cH"/><use transform="matrix(0.049382716049382706,0,0,0.049382716049382706,18.76543209876543,0)" xlink:href="#cM"/><use transform="matrix(0.049382716049382706,0,0,0.049382716049382706,28.64197530864197,0)" xlink:href="#cB"/></g><path d="M115-194c55 1 70 41 70 98S169 2 115 4C84 4 66-9 55-30l1 105H24l-1-265h31l2 30c10-21 28-34 59-34zm-8 174c40 0 45-34 45-75s-6-73-45-74c-42 0-51 32-51 76 0 43 10 73 51 73" id="cR"/><g id="ag"><use transform="matrix(0.049382716049382706,0,0,0.049382716049382706,0,0)" xlink:href="#cR"/><use transform="matrix(0.049382716049382706,0,0,0.049382716049382706,9.87654320987654,0)" xlink:href="#cH"/><use transform="matrix(0.049382716049382706,0,0,0.049382716049382706,19.75308641975308,0)" xlink:href="#cG"/><use transform="matrix(0.049382716049382706,0,0,0.049382716049382706,23.654320987654316,0)" xlink:href="#cy"/><use transform="matrix(0.049382716049382706,0,0,0.049382716049382706,27.55555555555555,0)" xlink:href="#cJ"/><use transform="matrix(0.049382716049382706,0,0,0.049382716049382706,36.444444444444436,0)" xlink:href="#cQ"/></g><path d="M240 0l2-218c-23 76-54 145-80 218h-23L58-218 59 0H30v-248h44l77 211c21-75 51-140 76-211h43V0h-30" id="cS"/><g id="ah"><use transform="matrix(0.049382716049382706,0,0,0.049382716049382706,0,0)" xlink:href="#cu"/><use transform="matrix(0.049382716049382706,0,0,0.049382716049382706,6.2716049382716035,0)" xlink:href="#cS"/><use transform="matrix(0.049382716049382706,0,0,0.049382716049382706,21.03703703703703,0)" xlink:href="#cH"/><use transform="matrix(0.049382716049382706,0,0,0.049382716049382706,30.913580246913575,0)" xlink:href="#cC"/><use transform="matrix(0.049382716049382706,0,0,0.049382716049382706,40.79012345679011,0)" xlink:href="#cw"/><use transform="matrix(0.049382716049382706,0,0,0.049382716049382706,50.66666666666666,0)" xlink:href="#cB"/><use transform="matrix(0.049382716049382706,0,0,0.049382716049382706,56.5432098765432,0)" xlink:href="#cD"/><use transform="matrix(0.049382716049382706,0,0,0.049382716049382706,66.41975308641975,0)" xlink:href="#cA"/><use transform="matrix(0.049382716049382706,0,0,0.049382716049382706,71.35802469135801,0)" xlink:href="#cH"/><use transform="matrix(0.049382716049382706,0,0,0.049382716049382706,81.23456790123456,0)" xlink:href="#cB"/><use transform="matrix(0.049382716049382706,0,0,0.049382716049382706,87.1111111111111,0)" xlink:href="#cu"/></g><g id="ai"><use transform="matrix(0.049382716049382706,0,0,0.049382716049382706,0,0)" xlink:href="#cJ"/><use transform="matrix(0.049382716049382706,0,0,0.049382716049382706,8.888888888888888,0)" xlink:href="#cD"/><use transform="matrix(0.049382716049382706,0,0,0.049382716049382706,18.76543209876543,0)" xlink:href="#cI"/></g><g id="aj"><use transform="matrix(0.049382716049382706,0,0,0.049382716049382706,0,0)" xlink:href="#cD"/><use transform="matrix(0.049382716049382706,0,0,0.049382716049382706,9.87654320987654,0)" xlink:href="#cM"/><use transform="matrix(0.049382716049382706,0,0,0.049382716049382706,19.75308641975308,0)" xlink:href="#cA"/><use transform="matrix(0.049382716049382706,0,0,0.049382716049382706,24.691358024691354,0)" xlink:href="#cF"/><use transform="matrix(0.049382716049382706,0,0,0.049382716049382706,34.5679012345679,0)" xlink:href="#cw"/><use transform="matrix(0.049382716049382706,0,0,0.049382716049382706,44.44444444444444,0)" xlink:href="#cI"/><use transform="matrix(0.049382716049382706,0,0,0.049382716049382706,54.32098765432099,0)" xlink:href="#cA"/><use transform="matrix(0.049382716049382706,0,0,0.049382716049382706,59.25925925925926,0)" xlink:href="#cy"/><use transform="matrix(0.049382716049382706,0,0,0.049382716049382706,63.160493827160494,0)" xlink:href="#cJ"/><use transform="matrix(0.049382716049382706,0,0,0.049382716049382706,72.04938271604938,0)" xlink:href="#cD"/><use transform="matrix(0.049382716049382706,0,0,0.049382716049382706,81.92592592592592,0)" xlink:href="#cA"/><use transform="matrix(0.049382716049382706,0,0,0.049382716049382706,86.86419753086419,0)" xlink:href="#cw"/></g><g id="ak"><use transform="matrix(0.049382716049382706,0,0,0.049382716049382706,0,0)" xlink:href="#cM"/><use transform="matrix(0.049382716049382706,0,0,0.049382716049382706,9.87654320987654,0)" xlink:href="#cz"/><use transform="matrix(0.049382716049382706,0,0,0.049382716049382706,18.76543209876543,0)" xlink:href="#cw"/><use transform="matrix(0.049382716049382706,0,0,0.049382716049382706,28.64197530864197,0)" xlink:href="#cB"/><use transform="matrix(0.049382716049382706,0,0,0.049382716049382706,34.51851851851851,0)" xlink:href="#cz"/><use transform="matrix(0.049382716049382706,0,0,0.049382716049382706,43.4074074074074,0)" xlink:href="#cN"/></g><path d="M210-169c-67 3-38 105-44 169h-31v-121c0-29-5-50-35-48C34-165 62-65 56 0H25l-1-190h30c1 10-1 24 2 32 10-44 99-50 107 0 11-21 27-35 58-36 85-2 47 119 55 194h-31v-121c0-29-5-49-35-48" id="cT"/><g id="al"><use transform="matrix(0.049382716049382706,0,0,0.049382716049382706,0,0)" xlink:href="#cu"/><use transform="matrix(0.049382716049382706,0,0,0.049382716049382706,6.2716049382716035,0)" xlink:href="#cO"/><use transform="matrix(0.049382716049382706,0,0,0.049382716049382706,18.123456790123452,0)" xlink:href="#cC"/><use transform="matrix(0.049382716049382706,0,0,0.049382716049382706,27.999999999999993,0)" xlink:href="#cT"/><use transform="matrix(0.049382716049382706,0,0,0.049382716049382706,42.76543209876542,0)" xlink:href="#cy"/><use transform="matrix(0.049382716049382706,0,0,0.049382716049382706,46.66666666666666,0)" xlink:href="#cI"/><use transform="matrix(0.049382716049382706,0,0,0.049382716049382706,56.5432098765432,0)" xlink:href="#cz"/><use transform="matrix(0.049382716049382706,0,0,0.049382716049382706,65.43209876543209,0)" xlink:href="#cu"/></g><g id="am"><use transform="matrix(0.049382716049382706,0,0,0.049382716049382706,0,0)" xlink:href="#cT"/><use transform="matrix(0.049382716049382706,0,0,0.049382716049382706,14.765432098765428,0)" xlink:href="#cD"/><use transform="matrix(0.049382716049382706,0,0,0.049382716049382706,24.641975308641968,0)" xlink:href="#cI"/><use transform="matrix(0.049382716049382706,0,0,0.049382716049382706,34.518518518518505,0)" xlink:href="#cD"/><use transform="matrix(0.049382716049382706,0,0,0.049382716049382706,44.39506172839505,0)" xlink:href="#cx"/><use transform="matrix(0.049382716049382706,0,0,0.049382716049382706,54.271604938271594,0)" xlink:href="#cw"/></g><g id="an"><use transform="matrix(0.049382716049382706,0,0,0.049382716049382706,0,0)" xlink:href="#cM"/><use transform="matrix(0.049382716049382706,0,0,0.049382716049382706,9.87654320987654,0)" xlink:href="#cz"/><use transform="matrix(0.049382716049382706,0,0,0.049382716049382706,18.76543209876543,0)" xlink:href="#cw"/><use transform="matrix(0.049382716049382706,0,0,0.049382716049382706,28.64197530864197,0)" xlink:href="#cB"/><use transform="matrix(0.049382716049382706,0,0,0.049382716049382706,34.51851851851851,0)" xlink:href="#cz"/><use transform="matrix(0.049382716049382706,0,0,0.049382716049382706,43.4074074074074,0)" xlink:href="#cK"/></g><g id="ao"><use transform="matrix(0.049382716049382706,0,0,0.049382716049382706,0,0)" xlink:href="#cA"/><use transform="matrix(0.049382716049382706,0,0,0.049382716049382706,4.93827160493827,0)" xlink:href="#cF"/><use transform="matrix(0.049382716049382706,0,0,0.049382716049382706,14.814814814814811,0)" xlink:href="#cw"/><use transform="matrix(0.049382716049382706,0,0,0.049382716049382706,24.691358024691354,0)" xlink:href="#cy"/><use transform="matrix(0.049382716049382706,0,0,0.049382716049382706,28.592592592592588,0)" xlink:href="#cB"/></g><g id="ap"><use transform="matrix(0.049382716049382706,0,0,0.049382716049382706,0,0)" xlink:href="#cR"/><use transform="matrix(0.049382716049382706,0,0,0.049382716049382706,9.87654320987654,0)" xlink:href="#cH"/><use transform="matrix(0.049382716049382706,0,0,0.049382716049382706,19.75308641975308,0)" xlink:href="#cz"/><use transform="matrix(0.049382716049382706,0,0,0.049382716049382706,28.64197530864197,0)" xlink:href="#cA"/></g><g id="aq"><use transform="matrix(0.049382716049382706,0,0,0.049382716049382706,0,0)" xlink:href="#cJ"/><use transform="matrix(0.049382716049382706,0,0,0.049382716049382706,8.888888888888888,0)" xlink:href="#cH"/><use transform="matrix(0.049382716049382706,0,0,0.049382716049382706,18.76543209876543,0)" xlink:href="#cI"/><use transform="matrix(0.049382716049382706,0,0,0.049382716049382706,28.64197530864197,0)" xlink:href="#cA"/><use transform="matrix(0.049382716049382706,0,0,0.049382716049382706,33.58024691358024,0)" xlink:href="#cw"/><use transform="matrix(0.049382716049382706,0,0,0.049382716049382706,43.456790123456784,0)" xlink:href="#cI"/><use transform="matrix(0.049382716049382706,0,0,0.049382716049382706,53.333333333333336,0)" xlink:href="#cA"/></g><path fill="#fff" d="M11 0l48-248h184l-5 28H87l-15 79h140l-5 27H67L50-27h158l-5 27H11" id="cU"/><path fill="#fff" d="M6 0l50-261h32L37 0H6" id="cV"/><g id="ar"><use transform="matrix(0.05,0,0,0.05,0,0)" xlink:href="#cU"/><use transform="matrix(0.05,0,0,0.05,12,0)" xlink:href="#cq"/><use transform="matrix(0.05,0,0,0.05,26.950000000000003,0)" xlink:href="#aP"/><use transform="matrix(0.05,0,0,0.05,36.95,0)" xlink:href="#aS"/><use transform="matrix(0.05,0,0,0.05,40.900000000000006,0)" xlink:href="#cV"/><use transform="matrix(0.05,0,0,0.05,44.85000000000001,0)" xlink:href="#aV"/><use transform="matrix(0.05,0,0,0.05,54.85,0)" xlink:href="#bq"/></g><path fill="#fff" d="M89 0H52L20-190h33L74-25l89-165h34" id="cW"/><g id="as"><use transform="matrix(0.05,0,0,0.05,0,0)" xlink:href="#aS"/><use transform="matrix(0.05,0,0,0.05,3.95,0)" xlink:href="#cl"/><use transform="matrix(0.05,0,0,0.05,13.949999999999998,0)" xlink:href="#cW"/><use transform="matrix(0.05,0,0,0.05,22.95,0)" xlink:href="#aS"/><use transform="matrix(0.05,0,0,0.05,26.899999999999995,0)" xlink:href="#aO"/><use transform="matrix(0.05,0,0,0.05,31.899999999999995,0)" xlink:href="#aP"/><use transform="matrix(0.05,0,0,0.05,41.9,0)" xlink:href="#aO"/><use transform="matrix(0.05,0,0,0.05,46.9,0)" xlink:href="#aS"/><use transform="matrix(0.05,0,0,0.05,50.85,0)" xlink:href="#co"/><use transform="matrix(0.05,0,0,0.05,60.85,0)" xlink:href="#cl"/></g><path fill="#333" d="M137 0h-34L2-248h35l83 218 83-218h36" id="cX"/><path fill="#333" d="M206 0h-36l-40-164L89 0H53L-1-190h32L70-26l43-164h34l41 164 42-164h31" id="cY"/><g id="at"><use transform="matrix(0.05,0,0,0.05,0,0)" xlink:href="#cX"/><use transform="matrix(0.05,0,0,0.05,11.65,0)" xlink:href="#bG"/><use transform="matrix(0.05,0,0,0.05,15.600000000000001,0)" xlink:href="#bP"/><use transform="matrix(0.05,0,0,0.05,25.6,0)" xlink:href="#cY"/></g><g id="au"><use transform="matrix(0.05,0,0,0.05,0,0)" xlink:href="#bl"/><use transform="matrix(0.05,0,0,0.05,10,0)" xlink:href="#bn"/><use transform="matrix(0.05,0,0,0.05,15,0)" xlink:href="#ch"/><use transform="matrix(0.05,0,0,0.05,25,0)" xlink:href="#bP"/><use transform="matrix(0.05,0,0,0.05,35,0)" xlink:href="#bM"/><use transform="matrix(0.05,0,0,0.05,40.95,0)" xlink:href="#bm"/></g><g id="av"><use transform="matrix(0.05,0,0,0.05,0,0)" xlink:href="#bk"/><use transform="matrix(0.05,0,0,0.05,12,0)" xlink:href="#bl"/><use transform="matrix(0.05,0,0,0.05,22,0)" xlink:href="#bm"/><use transform="matrix(0.05,0,0,0.05,31,0)" xlink:href="#bn"/><use transform="matrix(0.05,0,0,0.05,36,0)" xlink:href="#bm"/></g><g id="aw"><use transform="matrix(0.05,0,0,0.05,0,0)" xlink:href="#bs"/><use transform="matrix(0.05,0,0,0.05,12.950000000000001,0)" xlink:href="#aF"/><use transform="matrix(0.05,0,0,0.05,22.950000000000003,0)" xlink:href="#aE"/><use transform="matrix(0.05,0,0,0.05,32.95,0)" xlink:href="#bt"/></g><g id="ax"><use transform="matrix(0.05,0,0,0.05,0,0)" xlink:href="#bu"/><use transform="matrix(0.05,0,0,0.05,12.950000000000001,0)" xlink:href="#aE"/><use transform="matrix(0.05,0,0,0.05,22.950000000000003,0)" xlink:href="#bv"/><use transform="matrix(0.05,0,0,0.05,33.900000000000006,0)" xlink:href="#bw"/><use transform="matrix(0.05,0,0,0.05,38.900000000000006,0)" xlink:href="#aF"/><use transform="matrix(0.05,0,0,0.05,48.900000000000006,0)" xlink:href="#aD"/><use transform="matrix(0.05,0,0,0.05,54.85,0)" xlink:href="#bt"/><use transform="matrix(0.05,0,0,0.05,61.85,0)" xlink:href="#bx"/><use transform="matrix(0.05,0,0,0.05,71.85000000000001,0)" xlink:href="#aD"/><use transform="matrix(0.05,0,0,0.05,77.80000000000001,0)" xlink:href="#bw"/><use transform="matrix(0.05,0,0,0.05,82.80000000000001,0)" xlink:href="#aC"/><use transform="matrix(0.05,0,0,0.05,93.75000000000001,0)" xlink:href="#by"/></g><g id="ay"><use transform="matrix(0.05,0,0,0.05,0,0)" xlink:href="#bu"/><use transform="matrix(0.05,0,0,0.05,12.950000000000001,0)" xlink:href="#aC"/><use transform="matrix(0.05,0,0,0.05,23.900000000000002,0)" xlink:href="#bA"/><use transform="matrix(0.05,0,0,0.05,28.900000000000002,0)" xlink:href="#aE"/><use transform="matrix(0.05,0,0,0.05,38.900000000000006,0)" xlink:href="#aF"/></g><path fill="#333" d="M24-248c93 1 206-16 204 79-1 75-69 88-152 82V0H24v-248zm52 121c47 0 100 7 100-41 0-47-54-39-100-39v80" id="cZ"/><g id="az"><use transform="matrix(0.05,0,0,0.05,0,0)" xlink:href="#cZ"/><use transform="matrix(0.05,0,0,0.05,12,0)" xlink:href="#aC"/><use transform="matrix(0.05,0,0,0.05,22.950000000000003,0)" xlink:href="#aF"/><use transform="matrix(0.05,0,0,0.05,32.95,0)" xlink:href="#aD"/></g><path fill="#333" d="M220-157c-53 9-28 100-34 157h-49v-107c1-27-5-49-29-50C55-147 81-57 75 0H25l-1-190h47c2 12-1 28 3 38 10-53 101-56 108 0 13-22 24-43 59-42 82 1 51 116 57 194h-49v-107c-1-25-5-48-29-50" id="da"/><g id="aA"><use transform="matrix(0.05,0,0,0.05,0,0)" xlink:href="#cZ"/><use transform="matrix(0.05,0,0,0.05,12,0)" xlink:href="#aE"/><use transform="matrix(0.05,0,0,0.05,22,0)" xlink:href="#bt"/><use transform="matrix(0.05,0,0,0.05,29,0)" xlink:href="#da"/><use transform="matrix(0.05,0,0,0.05,45,0)" xlink:href="#bw"/><use transform="matrix(0.05,0,0,0.05,50,0)" xlink:href="#aF"/><use transform="matrix(0.05,0,0,0.05,60,0)" xlink:href="#aF"/><use transform="matrix(0.05,0,0,0.05,70,0)" xlink:href="#bw"/><use transform="matrix(0.05,0,0,0.05,75,0)" xlink:href="#aC"/><use transform="matrix(0.05,0,0,0.05,85.95,0)" xlink:href="#by"/><use transform="matrix(0.05,0,0,0.05,96.9,0)" xlink:href="#aF"/></g></defs></g></svg>